<svg viewBox="0 0 330 200" xmlns="http://www.w3.org/2000/svg"><g><g><g><g><g><line x1="58" y1="178" x2="53" y2="178" style="visibility: inherit;" fill="rgb(0, 0, 0)" stroke="rgb(204, 204, 204)" stroke-width="1px"></line><line x1="58" y1="160.2" x2="53" y2="160.2" style="visibility: inherit;" fill="rgb(0, 0, 0)" stroke="rgb(204, 204, 204)" stroke-width="1px"></line><line x1="58" y1="142.4" x2="53" y2="142.4" style="visibility: inherit;" fill="rgb(0, 0, 0)" stroke="rgb(204, 204, 204)" stroke-width="1px"></line><line x1="58" y1="124.6" x2="53" y2="124.6" style="visibility: inherit;" fill="rgb(0, 0, 0)" stroke="rgb(204, 204, 204)" stroke-width="1px"></line><line x1="58" y1="106.8" x2="53" y2="106.8" style="visibility: inherit;" fill="rgb(0, 0, 0)" stroke="rgb(204, 204, 204)" stroke-width="1px"></line><line x1="58" y1="89" x2="53" y2="89" style="visibility: inherit;" fill="rgb(0, 0, 0)" stroke="rgb(204, 204, 204)" stroke-width="1px"></line><line x1="58" y1="71.2" x2="53" y2="71.2" style="visibility: inherit;" fill="rgb(0, 0, 0)" stroke="rgb(204, 204, 204)" stroke-width="1px"></line><line x1="58" y1="53.400000000000006" x2="53" y2="53.400000000000006" style="visibility: inherit;" fill="rgb(0, 0, 0)" stroke="rgb(204, 204, 204)" stroke-width="1px"></line><line x1="58" y1="35.599999999999994" x2="53" y2="35.599999999999994" style="visibility: inherit;" fill="rgb(0, 0, 0)" stroke="rgb(204, 204, 204)" stroke-width="1px"></line><line x1="58" y1="17.799999999999983" x2="53" y2="17.799999999999983" style="visibility: inherit;" fill="rgb(0, 0, 0)" stroke="rgb(204, 204, 204)" stroke-width="1px"></line><line x1="58" y1="0" x2="53" y2="0" style="visibility: inherit;" fill="rgb(0, 0, 0)" stroke="rgb(204, 204, 204)" stroke-width="1px"></line></g><g transform="translate(48, 0)"><text x="0" y="178" dx="0em" dy="0.3em" style="text-anchor: end; visibility: hidden; font-family: &quot;Helvetica Neue&quot;, sans-serif; font-size: 12px; font-weight: 200;" fill="rgb(50, 49, 63)" stroke="none" stroke-width="1px">-0.5</text><text x="0" y="160.2" dx="0em" dy="0.3em" style="text-anchor: end; visibility: inherit; font-family: &quot;Helvetica Neue&quot;, sans-serif; font-size: 12px; font-weight: 200;" fill="rgb(50, 49, 63)" stroke="none" stroke-width="1px">0</text><text x="0" y="142.4" dx="0em" dy="0.3em" style="text-anchor: end; visibility: hidden; font-family: &quot;Helvetica Neue&quot;, sans-serif; font-size: 12px; font-weight: 200;" fill="rgb(50, 49, 63)" stroke="none" stroke-width="1px">0.5</text><text x="0" y="124.6" dx="0em" dy="0.3em" style="text-anchor: end; visibility: inherit; font-family: &quot;Helvetica Neue&quot;, sans-serif; font-size: 12px; font-weight: 200;" fill="rgb(50, 49, 63)" stroke="none" stroke-width="1px">1</text><text x="0" y="106.8" dx="0em" dy="0.3em" style="text-anchor: end; visibility: hidden; font-family: &quot;Helvetica Neue&quot;, sans-serif; font-size: 12px; font-weight: 200;" fill="rgb(50, 49, 63)" stroke="none" stroke-width="1px">1.5</text><text x="0" y="89" dx="0em" dy="0.3em" style="text-anchor: end; visibility: inherit; font-family: &quot;Helvetica Neue&quot;, sans-serif; font-size: 12px; font-weight: 200;" fill="rgb(50, 49, 63)" stroke="none" stroke-width="1px">2</text><text x="0" y="71.2" dx="0em" dy="0.3em" style="text-anchor: end; visibility: hidden; font-family: &quot;Helvetica Neue&quot;, sans-serif; font-size: 12px; font-weight: 200;" fill="rgb(50, 49, 63)" stroke="none" stroke-width="1px">2.5</text><text x="0" y="53.400000000000006" dx="0em" dy="0.3em" style="text-anchor: end; visibility: inherit; font-family: &quot;Helvetica Neue&quot;, sans-serif; font-size: 12px; font-weight: 200;" fill="rgb(50, 49, 63)" stroke="none" stroke-width="1px">3</text><text x="0" y="35.599999999999994" dx="0em" dy="0.3em" style="text-anchor: end; visibility: hidden; font-family: &quot;Helvetica Neue&quot;, sans-serif; font-size: 12px; font-weight: 200;" fill="rgb(50, 49, 63)" stroke="none" stroke-width="1px">3.5</text><text x="0" y="17.799999999999983" dx="0em" dy="0.3em" style="text-anchor: end; visibility: inherit; font-family: &quot;Helvetica Neue&quot;, sans-serif; font-size: 12px; font-weight: 200;" fill="rgb(50, 49, 63)" stroke="none" stroke-width="1px">4</text><text x="0" y="0" dx="0em" dy="0.3em" style="text-anchor: end; visibility: hidden; font-family: &quot;Helvetica Neue&quot;, sans-serif; font-size: 12px; font-weight: 200;" fill="rgb(50, 49, 63)" stroke="none" stroke-width="1px">4.5</text></g><line x1="58" y1="0" x2="58" y2="178" fill="rgb(0, 0, 0)" stroke="rgb(204, 204, 204)" stroke-width="1px"></line></g></g><g transform="translate(58, 0)" clip-path="url(#clip_0)"><clipPath id="clip_0"><rect width="272" height="178"></rect></clipPath><g><g><g><line x1="0" y1="0" x2="0" y2="178" fill="rgb(0, 0, 0)" stroke="rgb(60, 60, 60)" stroke-width="1px" opacity="0.25"></line><line x1="24.727272727272727" y1="0" x2="24.727272727272727" y2="178" fill="rgb(0, 0, 0)" stroke="rgb(60, 60, 60)" stroke-width="1px" opacity="0.25"></line><line x1="49.45454545454545" y1="0" x2="49.45454545454545" y2="178" fill="rgb(0, 0, 0)" stroke="rgb(60, 60, 60)" stroke-width="1px" opacity="0.25"></line><line x1="74.18181818181817" y1="0" x2="74.18181818181817" y2="178" fill="rgb(0, 0, 0)" stroke="rgb(60, 60, 60)" stroke-width="1px" opacity="0.25"></line><line x1="98.9090909090909" y1="0" x2="98.9090909090909" y2="178" fill="rgb(0, 0, 0)" stroke="rgb(60, 60, 60)" stroke-width="1px" opacity="0.25"></line><line x1="123.63636363636363" y1="0" x2="123.63636363636363" y2="178" fill="rgb(0, 0, 0)" stroke="rgb(60, 60, 60)" stroke-width="1px" opacity="0.25"></line><line x1="148.36363636363635" y1="0" x2="148.36363636363635" y2="178" fill="rgb(0, 0, 0)" stroke="rgb(60, 60, 60)" stroke-width="1px" opacity="0.25"></line><line x1="173.0909090909091" y1="0" x2="173.0909090909091" y2="178" fill="rgb(0, 0, 0)" stroke="rgb(60, 60, 60)" stroke-width="1px" opacity="0.25"></line><line x1="197.8181818181818" y1="0" x2="197.8181818181818" y2="178" fill="rgb(0, 0, 0)" stroke="rgb(60, 60, 60)" stroke-width="1px" opacity="0.25"></line><line x1="222.54545454545456" y1="0" x2="222.54545454545456" y2="178" fill="rgb(0, 0, 0)" stroke="rgb(60, 60, 60)" stroke-width="1px" opacity="0.25"></line><line x1="247.27272727272725" y1="0" x2="247.27272727272725" y2="178" fill="rgb(0, 0, 0)" stroke="rgb(60, 60, 60)" stroke-width="1px" opacity="0.25"></line><line x1="272" y1="0" x2="272" y2="178" fill="rgb(0, 0, 0)" stroke="rgb(60, 60, 60)" stroke-width="1px" opacity="0.25"></line></g><g><line x1="0" y1="178" x2="272" y2="178" fill="rgb(0, 0, 0)" stroke="rgb(60, 60, 60)" stroke-width="1px" opacity="0.25"></line><line x1="0" y1="160.2" x2="272" y2="160.2" fill="rgb(0, 0, 0)" stroke="rgb(60, 60, 60)" stroke-width="1px" opacity="0.25"></line><line x1="0" y1="142.4" x2="272" y2="142.4" fill="rgb(0, 0, 0)" stroke="rgb(60, 60, 60)" stroke-width="1px" opacity="0.25"></line><line x1="0" y1="124.6" x2="272" y2="124.6" fill="rgb(0, 0, 0)" stroke="rgb(60, 60, 60)" stroke-width="1px" opacity="0.25"></line><line x1="0" y1="106.8" x2="272" y2="106.8" fill="rgb(0, 0, 0)" stroke="rgb(60, 60, 60)" stroke-width="1px" opacity="0.25"></line><line x1="0" y1="89" x2="272" y2="89" fill="rgb(0, 0, 0)" stroke="rgb(60, 60, 60)" stroke-width="1px" opacity="0.25"></line><line x1="0" y1="71.2" x2="272" y2="71.2" fill="rgb(0, 0, 0)" stroke="rgb(60, 60, 60)" stroke-width="1px" opacity="0.25"></line><line x1="0" y1="53.400000000000006" x2="272" y2="53.400000000000006" fill="rgb(0, 0, 0)" stroke="rgb(60, 60, 60)" stroke-width="1px" opacity="0.25"></line><line x1="0" y1="35.599999999999994" x2="272" y2="35.599999999999994" fill="rgb(0, 0, 0)" stroke="rgb(60, 60, 60)" stroke-width="1px" opacity="0.25"></line><line x1="0" y1="17.799999999999983" x2="272" y2="17.799999999999983" fill="rgb(0, 0, 0)" stroke="rgb(60, 60, 60)" stroke-width="1px" opacity="0.25"></line><line x1="0" y1="0" x2="272" y2="0" fill="rgb(0, 0, 0)" stroke="rgb(60, 60, 60)" stroke-width="1px" opacity="0.25"></line></g></g></g><g><g><line x1="0" y1="160.2" x2="272" y2="160.2" fill="rgb(0, 0, 0)" stroke="rgb(153, 153, 153)" stroke-width="1.5px"></line></g></g><g><g><line x1="24.727272727272727" y1="0" x2="24.727272727272727" y2="178" fill="rgb(0, 0, 0)" stroke="rgb(153, 153, 153)" stroke-width="1.5px"></line></g></g><g><g><g><g><g><path stroke="rgb(255, 112, 67)" stroke-width="2px" d="M24.727272727272727,22.498961257934553L25.963636363636365,34.77257536649702L27.200000000000003,40.92030032216286L28.436363636363634,46.366648341277056L29.672727272727272,51.163587899641556L30.909090909090907,56.26091508116296L32.14545454545455,60.10172158297307L33.38181818181818,62.21288137312003L34.61818181818182,64.7875150738873L35.85454545454545,67.05442215058285L37.090909090909086,69.75638016986913L38.32727272727273,71.91162338757076L39.56363636363636,74.26541843044824L40.8,76.98325613609727L42.03636363636363,77.92959449756266L43.27272727272727,79.73418086176477L44.50909090909091,81.26969928383024L45.74545454545454,82.795918970076L46.981818181818184,84.01756204231782L48.21818181818182,85.53694508662275L49.45454545454545,86.13425664747744L50.690909090909095,88.00555563529156L51.92727272727273,89.05841739860972L53.163636363636364,88.89412326144661L54.400000000000006,90.02148549710479L55.63636363636364,90.86266093307513L56.87272727272727,91.36996760824339L58.10909090909091,91.44619833179061L59.345454545454544,91.77242142029878L60.58181818181818,91.88773760286186L61.81818181818181,92.54205932407683L63.054545454545455,93.59191788320099L64.2909090909091,94.99368759342767L65.52727272727273,95.82763668273346L66.76363636363637,96.89178811695335L68,97.75922962121511L69.23636363636363,98.5681830032603L70.47272727272727,98.58800460488622L71.7090909090909,99.55521212787957L72.94545454545455,99.76820080530224L74.18181818181817,100.13057031333649L75.41818181818182,100.44337171390926L76.65454545454546,100.4886408071367L77.89090909090909,100.98549128902509L79.12727272727273,101.70069910851136L80.36363636363637,102.00026413065287L81.6,102.12463786758704L82.83636363636364,102.75578201866209L84.07272727272726,102.8925859943412L85.30909090909091,102.97295556160171L86.54545454545455,103.71816357668021L87.78181818181818,104.50892146525483L89.01818181818182,104.32105709134127L90.25454545454546,104.2416408122693L91.49090909090908,104.80695247060777L92.72727272727272,104.59367498044196L93.96363636363637,104.3586361329795L95.19999999999999,105.5180593920376L96.43636363636364,105.86171309188764L97.67272727272727,106.61857719442705L98.9090909090909,107.1191624261228L100.14545454545454,107.36107743843125L101.38181818181819,107.24272915043669L102.61818181818181,107.42316154192827L103.85454545454546,107.78519815654124L105.0909090909091,108.68107805759051L106.32727272727273,108.4137597114464L107.56363636363636,109.24841079894425L108.80000000000001,109.27753648867441L110.03636363636363,109.01562732762237L111.27272727272728,109.37560182992303L112.50909090909092,109.52164447655488L113.74545454545454,110.23762648314363L114.98181818181818,110.66579654342011L116.21818181818182,110.45401110247418L117.45454545454545,110.51866343257215L118.69090909090909,110.92163154266707L119.92727272727274,110.43263319958706L121.16363636363636,109.967563642439L122.4,109.88356758914992L123.63636363636363,110.35725835897091L124.87272727272727,111.28983475171066L126.10909090909091,111.62164197804056L127.34545454545454,111.53392858053161L128.5818181818182,112.4031294223363L129.8181818181818,112.59013942937224L131.05454545454546,112.59141966378789L132.2909090909091,113.17580045626224L133.52727272727273,113.29907057145631L134.76363636363638,113.78755160724756L136,114.17987334105752L137.23636363636362,114.38516729458203L138.47272727272727,114.53391880860346L139.70909090909092,114.84948748511326L140.94545454545454,114.54154614783675L142.1818181818182,115.17692416773647L143.4181818181818,115.26299286047465L144.65454545454546,115.15066187000184L145.8909090909091,115.47483998546545L147.12727272727273,115.39934628253903L148.36363636363635,115.76512471822338L149.60000000000002,116.29517035476825L150.83636363636364,116.54790694232263L152.07272727272726,115.87553228566335L153.3090909090909,116.40461559789946L154.54545454545456,116.66725710211738L155.78181818181818,115.77634266840545L157.01818181818183,117.00942912475543L158.25454545454545,117.22823458895847L159.49090909090907,117.65658741704085L160.72727272727275,118.08982246822988L161.96363636363637,118.49797404352948L163.2,117.91210744705276L164.43636363636364,117.37610560134934L165.6727272727273,117.43759689733913L166.9090909090909,117.64485002759415L168.14545454545453,118.24971784355233L169.38181818181818,118.1899493050694L170.61818181818182,118.24144020987269L171.85454545454547,118.78815613336991L173.0909090909091,119.08144552557249L174.3272727272727,119.08254874616014L175.56363636363636,118.91512023966996L176.8,118.55853656030588L178.03636363636363,119.05138441024357L179.27272727272725,119.16716403542839L180.50909090909093,119.35117334114838L181.74545454545455,119.91785398714143L182.98181818181817,119.96553066010713L184.21818181818182,120.23340326926373L185.45454545454544,119.8772003554181L186.6909090909091,120.51484938042614L187.92727272727274,120.61490698085579L189.16363636363636,120.76798372403593L190.39999999999998,120.96584964833147L191.63636363636365,121.35936702395372L192.87272727272727,121.8625327891403L194.1090909090909,122.21583886064849L195.34545454545454,122.04257592152214L196.5818181818182,122.7185971772114L197.8181818181818,123.13151784154411L199.05454545454546,123.41930163510226L200.29090909090908,123.88845411185969L201.52727272727273,124.36978428390354L202.76363636363638,124.77350841061312L204,125.06911779699348L205.23636363636362,125.70057205949797L206.47272727272727,126.12727875587089L207.70909090909092,126.2722556297585L208.94545454545454,126.96343453553942L210.1818181818182,126.90714744465129L211.4181818181818,127.19300080619202L212.65454545454546,127.07246884156433L213.8909090909091,127.41188720970848L215.12727272727273,128.0674404293865L216.36363636363635,128.484632987414L217.60000000000002,128.76557384647975L218.83636363636364,128.56385814379485L220.07272727272726,128.64582143801945L221.3090909090909,129.1430999718815L222.54545454545456,129.585548370046L223.78181818181818,129.93780330715333L225.01818181818183,130.06040886341188L226.25454545454545,130.45786203443203L227.49090909090907,130.6482086700153L228.72727272727275,130.52705353986929L229.96363636363637,130.83166679913825L231.2,131.31913389906302L232.43636363636364,131.71016231384883L233.6727272727273,131.88537648682004L234.9090909090909,131.94835676291112L236.14545454545453,132.22504231893137L237.38181818181818,132.18613337971635L238.61818181818182,132.85719063459555L239.85454545454547,133.33872750865652L241.0909090909091,133.4326115910246L242.3272727272727,133.2698422136327" style="fill: none;" fill="none"></path></g></g></g></g><g opacity="0.2"><g><g><g><path stroke="rgb(255, 112, 67)" stroke-width="2px" d="M24.727272727272727,22.498961257934553L25.963636363636365,42.136743831634504L27.200000000000003,46.82211627960206L28.436363636363634,52.771553611755365L29.672727272727272,57.426472187042236L30.909090909090907,63.31235361099243L32.14545454545455,65.59413633346557L33.38181818181818,65.29097261428834L34.61818181818182,68.58459968566895L35.85454545454545,70.42051496505738L37.090909090909086,73.78481063842773L38.32727272727273,75.13275947570801L39.56363636363636,77.78842544555664L40.8,81.05468816757202L42.03636363636363,79.34798965454101L43.27272727272727,82.43978767395019L44.50909090909091,83.57232713699341L45.74545454545454,85.08486099243164L46.981818181818184,85.8498405456543L48.21818181818182,87.81588077545166L49.45454545454545,87.03019123077392L50.690909090909095,90.81244254112244L51.92727272727273,90.63768925666808L53.163636363636364,88.64768400192261L54.400000000000006,91.71252083778381L55.63636363636364,92.12442049980164L56.87272727272727,92.13092632293701L58.10909090909091,91.56054430007934L59.345454545454544,92.26175575256347L60.58181818181818,92.06071181297303L61.81818181818181,93.52354168891907L63.054545454545455,95.16670551300048L64.2909090909091,97.09634199142455L65.52727272727273,97.078560256958L66.76363636363637,98.48801522254944L68,99.06039185523987L69.23636363636363,99.78161306381226L70.47272727272727,98.61773700714112L71.7090909090909,101.00602340698242L72.94545454545455,100.08768382072448L74.18181818181817,100.67412457466126L75.41818181818182,100.91257381439209L76.65454545454546,100.55654444694518L77.89090909090909,101.73076701164246L79.12727272727273,102.77351083755492L80.36363636363637,102.44961166381836L81.6,102.31119847297668L82.83636363636364,103.70249824523925L84.07272727272726,103.09779195785522L85.30909090909091,103.09350991249084L86.54545454545455,104.83597559928894L87.78181818181818,105.69505829811096L89.01818181818182,104.0392605304718L90.25454545454546,104.1225163936615L91.49090909090908,105.65491995811463L92.72727272727272,104.27375874519349L93.96363636363637,104.0060778617859L95.19999999999999,107.25719428062439L96.43636363636364,106.3771936416626L97.67272727272727,107.75387334823608L98.9090909090909,107.87004027366639L100.14545454545454,107.72394995689392L101.38181818181819,107.06520671844483L102.61818181818181,107.69381012916564L103.85454545454546,108.32825307846069L105.0909090909091,110.02489790916444L106.32727272727273,108.01278219223023L107.56363636363636,110.50038743019104L108.80000000000001,109.32122502326966L110.03636363636363,108.62276358604431L111.27272727272728,109.91556358337402L112.50909090909092,109.7407084465027L113.74545454545454,111.31159949302673L114.98181818181818,111.30805163383484L116.21818181818182,110.1363329410553L117.45454545454545,110.61564192771912L118.69090909090909,111.52608370780945L119.92727272727274,109.69913568496703L121.16363636363636,109.26995930671693L122.4,109.7575735092163L123.63636363636363,111.0677945137024L124.87272727272727,112.68869934082032L126.10909090909091,112.1193528175354L127.34545454545454,111.40235848426819L128.5818181818182,113.70693068504333L129.8181818181818,112.87065443992616L131.05454545454546,112.59334001541139L132.2909090909091,114.05237164497376L133.52727272727273,113.48397574424745L134.76363636363638,114.52027316093445L136,114.76835594177246L137.23636363636362,114.69310822486878L138.47272727272727,114.75704607963561L139.70909090909092,115.32284049987793L140.94545454545454,114.079634141922L142.1818181818182,116.12999119758607L143.4181818181818,115.3920958995819L144.65454545454546,114.9821653842926L145.8909090909091,115.9611071586609L147.12727272727273,115.28610572814941L148.36363636363635,116.31379237174988L149.60000000000002,117.09023880958557L150.83636363636364,116.92701182365417L152.07272727272726,114.86697030067444L153.3090909090909,117.19824056625366L154.54545454545456,117.06121935844422L155.78181818181818,114.43997101783752L157.01818181818183,118.8590588092804L158.25454545454545,117.55644278526306L159.49090909090907,118.29911665916443L160.72727272727275,118.73967504501343L161.96363636363637,119.11020140647888L163.2,117.03330755233765L164.43636363636364,116.57210283279419L165.6727272727273,117.52983384132385L166.9090909090909,117.95572972297668L168.14545454545453,119.15701956748963L169.38181818181818,118.10029649734497L170.61818181818182,118.31867656707763L171.85454545454547,119.60823001861573L173.0909090909091,119.52137961387635L174.3272727272727,119.08420357704162L175.56363636363636,118.66397747993469L176.8,118.02366104125977L178.03636363636363,119.79065618515014L179.27272727272725,119.34083347320556L180.50909090909093,119.62718729972839L181.74545454545455,120.76787495613098L182.98181818181817,120.03704566955567L184.21818181818182,120.63521218299866L185.45454545454544,119.34289598464966L186.6909090909091,121.47132291793824L187.92727272727274,120.76499338150025L189.16363636363636,120.99759883880616L190.39999999999998,121.26264853477478L191.63636363636365,121.94964308738709L192.87272727272727,122.61728143692017L194.1090909090909,122.74579796791076L195.34545454545454,121.78268151283264L196.5818181818182,123.73262906074524L197.8181818181818,123.75089883804321L199.05454545454546,123.85097732543946L200.29090909090908,124.59218282699585L201.52727272727273,125.0917795419693L202.76363636363638,125.37909460067749L204,125.51253187656403L205.23636363636362,126.6477534532547L206.47272727272727,126.7673388004303L207.70909090909092,126.4897209405899L208.94545454545454,128.00020289421082L210.1818181818182,126.82271680831909L211.4181818181818,127.62178084850311L212.65454545454546,126.8916708946228L213.8909090909091,127.92101476192474L215.12727272727273,129.0507702589035L216.36363636363635,129.11042182445527L217.60000000000002,129.18698513507843L218.83636363636364,128.26128458976746L220.07272727272726,128.76876637935638L221.3090909090909,129.88901777267455L222.54545454545456,130.24922096729279L223.78181818181818,130.46618571281434L225.01818181818183,130.2443171977997L226.25454545454545,131.05404179096223L227.49090909090907,130.9337286233902L228.72727272727275,130.34532084465027L229.96363636363637,131.28858668804168L231.2,132.0503345489502L232.43636363636364,132.29670493602754L233.6727272727273,132.14819774627685L234.9090909090909,132.04282717704774L236.14545454545453,132.64007065296173L237.38181818181818,132.12776997089387L238.61818181818182,133.86377651691436L239.85454545454547,134.06103281974794L241.0909090909091,133.57343771457673L242.3272727272727,133.02568814754486" style="fill: none;" fill="none"></path></g></g></g></g></g></g><g transform="translate(58, 178)" clip-path="url(#clip_1)"><clipPath id="clip_1"><rect width="272" height="22"></rect></clipPath><g><g><line x1="0" y1="0" x2="0" y2="5" style="visibility: inherit;" fill="rgb(0, 0, 0)" stroke="rgb(204, 204, 204)" stroke-width="1px"></line><line x1="24.727272727272727" y1="0" x2="24.727272727272727" y2="5" style="visibility: inherit;" fill="rgb(0, 0, 0)" stroke="rgb(204, 204, 204)" stroke-width="1px"></line><line x1="49.45454545454545" y1="0" x2="49.45454545454545" y2="5" style="visibility: inherit;" fill="rgb(0, 0, 0)" stroke="rgb(204, 204, 204)" stroke-width="1px"></line><line x1="74.18181818181817" y1="0" x2="74.18181818181817" y2="5" style="visibility: inherit;" fill="rgb(0, 0, 0)" stroke="rgb(204, 204, 204)" stroke-width="1px"></line><line x1="98.9090909090909" y1="0" x2="98.9090909090909" y2="5" style="visibility: inherit;" fill="rgb(0, 0, 0)" stroke="rgb(204, 204, 204)" stroke-width="1px"></line><line x1="123.63636363636363" y1="0" x2="123.63636363636363" y2="5" style="visibility: inherit;" fill="rgb(0, 0, 0)" stroke="rgb(204, 204, 204)" stroke-width="1px"></line><line x1="148.36363636363635" y1="0" x2="148.36363636363635" y2="5" style="visibility: inherit;" fill="rgb(0, 0, 0)" stroke="rgb(204, 204, 204)" stroke-width="1px"></line><line x1="173.0909090909091" y1="0" x2="173.0909090909091" y2="5" style="visibility: inherit;" fill="rgb(0, 0, 0)" stroke="rgb(204, 204, 204)" stroke-width="1px"></line><line x1="197.8181818181818" y1="0" x2="197.8181818181818" y2="5" style="visibility: inherit;" fill="rgb(0, 0, 0)" stroke="rgb(204, 204, 204)" stroke-width="1px"></line><line x1="222.54545454545456" y1="0" x2="222.54545454545456" y2="5" style="visibility: inherit;" fill="rgb(0, 0, 0)" stroke="rgb(204, 204, 204)" stroke-width="1px"></line><line x1="247.27272727272725" y1="0" x2="247.27272727272725" y2="5" style="visibility: inherit;" fill="rgb(0, 0, 0)" stroke="rgb(204, 204, 204)" stroke-width="1px"></line><line x1="272" y1="0" x2="272" y2="5" style="visibility: inherit;" fill="rgb(0, 0, 0)" stroke="rgb(204, 204, 204)" stroke-width="1px"></line></g><g transform="translate(0, 8)"><text x="0" y="0" dx="0em" dy="0.95em" style="text-anchor: middle; visibility: hidden; font-family: &quot;Helvetica Neue&quot;, sans-serif; font-size: 12px; font-weight: 200;" fill="rgb(50, 49, 63)" stroke="none" stroke-width="1px">-20</text><text x="24.727272727272727" y="0" dx="0em" dy="0.95em" style="text-anchor: middle; visibility: inherit; font-family: &quot;Helvetica Neue&quot;, sans-serif; font-size: 12px; font-weight: 200;" fill="rgb(50, 49, 63)" stroke="none" stroke-width="1px">0</text><text x="49.45454545454545" y="0" dx="0em" dy="0.95em" style="text-anchor: middle; visibility: hidden; font-family: &quot;Helvetica Neue&quot;, sans-serif; font-size: 12px; font-weight: 200;" fill="rgb(50, 49, 63)" stroke="none" stroke-width="1px">20</text><text x="74.18181818181817" y="0" dx="0em" dy="0.95em" style="text-anchor: middle; visibility: inherit; font-family: &quot;Helvetica Neue&quot;, sans-serif; font-size: 12px; font-weight: 200;" fill="rgb(50, 49, 63)" stroke="none" stroke-width="1px">40</text><text x="98.9090909090909" y="0" dx="0em" dy="0.95em" style="text-anchor: middle; visibility: hidden; font-family: &quot;Helvetica Neue&quot;, sans-serif; font-size: 12px; font-weight: 200;" fill="rgb(50, 49, 63)" stroke="none" stroke-width="1px">60</text><text x="123.63636363636363" y="0" dx="0em" dy="0.95em" style="text-anchor: middle; visibility: inherit; font-family: &quot;Helvetica Neue&quot;, sans-serif; font-size: 12px; font-weight: 200;" fill="rgb(50, 49, 63)" stroke="none" stroke-width="1px">80</text><text x="148.36363636363635" y="0" dx="0em" dy="0.95em" style="text-anchor: middle; visibility: hidden; font-family: &quot;Helvetica Neue&quot;, sans-serif; font-size: 12px; font-weight: 200;" fill="rgb(50, 49, 63)" stroke="none" stroke-width="1px">100</text><text x="173.0909090909091" y="0" dx="0em" dy="0.95em" style="text-anchor: middle; visibility: inherit; font-family: &quot;Helvetica Neue&quot;, sans-serif; font-size: 12px; font-weight: 200;" fill="rgb(50, 49, 63)" stroke="none" stroke-width="1px">120</text><text x="197.8181818181818" y="0" dx="0em" dy="0.95em" style="text-anchor: middle; visibility: hidden; font-family: &quot;Helvetica Neue&quot;, sans-serif; font-size: 12px; font-weight: 200;" fill="rgb(50, 49, 63)" stroke="none" stroke-width="1px">140</text><text x="222.54545454545456" y="0" dx="0em" dy="0.95em" style="text-anchor: middle; visibility: inherit; font-family: &quot;Helvetica Neue&quot;, sans-serif; font-size: 12px; font-weight: 200;" fill="rgb(50, 49, 63)" stroke="none" stroke-width="1px">160</text><text x="247.27272727272725" y="0" dx="0em" dy="0.95em" style="text-anchor: middle; visibility: hidden; font-family: &quot;Helvetica Neue&quot;, sans-serif; font-size: 12px; font-weight: 200;" fill="rgb(50, 49, 63)" stroke="none" stroke-width="1px">180</text><text x="272" y="0" dx="0em" dy="0.95em" style="text-anchor: middle; visibility: hidden; font-family: &quot;Helvetica Neue&quot;, sans-serif; font-size: 12px; font-weight: 200;" fill="rgb(50, 49, 63)" stroke="none" stroke-width="1px">200</text></g><line x1="0" y1="0" x2="272" y2="0" fill="rgb(0, 0, 0)" stroke="rgb(204, 204, 204)" stroke-width="1px"></line></g></g></g></g></svg>