<svg viewBox="0 0 330 200" xmlns="http://www.w3.org/2000/svg"><g><g><g><g><g><line x1="58" y1="178" x2="53" y2="178" style="visibility: inherit;" fill="rgb(0, 0, 0)" stroke="rgb(204, 204, 204)" stroke-width="1px"></line><line x1="58" y1="158.22222222222223" x2="53" y2="158.22222222222223" style="visibility: inherit;" fill="rgb(0, 0, 0)" stroke="rgb(204, 204, 204)" stroke-width="1px"></line><line x1="58" y1="138.44444444444446" x2="53" y2="138.44444444444446" style="visibility: inherit;" fill="rgb(0, 0, 0)" stroke="rgb(204, 204, 204)" stroke-width="1px"></line><line x1="58" y1="118.66666666666666" x2="53" y2="118.66666666666666" style="visibility: inherit;" fill="rgb(0, 0, 0)" stroke="rgb(204, 204, 204)" stroke-width="1px"></line><line x1="58" y1="98.88888888888889" x2="53" y2="98.88888888888889" style="visibility: inherit;" fill="rgb(0, 0, 0)" stroke="rgb(204, 204, 204)" stroke-width="1px"></line><line x1="58" y1="79.1111111111111" x2="53" y2="79.1111111111111" style="visibility: inherit;" fill="rgb(0, 0, 0)" stroke="rgb(204, 204, 204)" stroke-width="1px"></line><line x1="58" y1="59.33333333333334" x2="53" y2="59.33333333333334" style="visibility: inherit;" fill="rgb(0, 0, 0)" stroke="rgb(204, 204, 204)" stroke-width="1px"></line><line x1="58" y1="39.55555555555557" x2="53" y2="39.55555555555557" style="visibility: inherit;" fill="rgb(0, 0, 0)" stroke="rgb(204, 204, 204)" stroke-width="1px"></line><line x1="58" y1="19.7777777777778" x2="53" y2="19.7777777777778" style="visibility: inherit;" fill="rgb(0, 0, 0)" stroke="rgb(204, 204, 204)" stroke-width="1px"></line><line x1="58" y1="0" x2="53" y2="0" style="visibility: inherit;" fill="rgb(0, 0, 0)" stroke="rgb(204, 204, 204)" stroke-width="1px"></line></g><g transform="translate(48, 0)"><text x="0" y="178" dx="0em" dy="0.3em" style="text-anchor: end; visibility: hidden; font-family: &quot;Helvetica Neue&quot;, sans-serif; font-size: 12px; font-weight: 200;" fill="rgb(50, 49, 63)" stroke="none" stroke-width="1px">-0.1</text><text x="0" y="158.22222222222223" dx="0em" dy="0.3em" style="text-anchor: end; visibility: inherit; font-family: &quot;Helvetica Neue&quot;, sans-serif; font-size: 12px; font-weight: 200;" fill="rgb(50, 49, 63)" stroke="none" stroke-width="1px">0</text><text x="0" y="138.44444444444446" dx="0em" dy="0.3em" style="text-anchor: end; visibility: hidden; font-family: &quot;Helvetica Neue&quot;, sans-serif; font-size: 12px; font-weight: 200;" fill="rgb(50, 49, 63)" stroke="none" stroke-width="1px">0.1</text><text x="0" y="118.66666666666666" dx="0em" dy="0.3em" style="text-anchor: end; visibility: inherit; font-family: &quot;Helvetica Neue&quot;, sans-serif; font-size: 12px; font-weight: 200;" fill="rgb(50, 49, 63)" stroke="none" stroke-width="1px">0.2</text><text x="0" y="98.88888888888889" dx="0em" dy="0.3em" style="text-anchor: end; visibility: hidden; font-family: &quot;Helvetica Neue&quot;, sans-serif; font-size: 12px; font-weight: 200;" fill="rgb(50, 49, 63)" stroke="none" stroke-width="1px">0.3</text><text x="0" y="79.1111111111111" dx="0em" dy="0.3em" style="text-anchor: end; visibility: inherit; font-family: &quot;Helvetica Neue&quot;, sans-serif; font-size: 12px; font-weight: 200;" fill="rgb(50, 49, 63)" stroke="none" stroke-width="1px">0.4</text><text x="0" y="59.33333333333334" dx="0em" dy="0.3em" style="text-anchor: end; visibility: hidden; font-family: &quot;Helvetica Neue&quot;, sans-serif; font-size: 12px; font-weight: 200;" fill="rgb(50, 49, 63)" stroke="none" stroke-width="1px">0.5</text><text x="0" y="39.55555555555557" dx="0em" dy="0.3em" style="text-anchor: end; visibility: inherit; font-family: &quot;Helvetica Neue&quot;, sans-serif; font-size: 12px; font-weight: 200;" fill="rgb(50, 49, 63)" stroke="none" stroke-width="1px">0.6</text><text x="0" y="19.7777777777778" dx="0em" dy="0.3em" style="text-anchor: end; visibility: hidden; font-family: &quot;Helvetica Neue&quot;, sans-serif; font-size: 12px; font-weight: 200;" fill="rgb(50, 49, 63)" stroke="none" stroke-width="1px">0.7</text><text x="0" y="0" dx="0em" dy="0.3em" style="text-anchor: end; visibility: hidden; font-family: &quot;Helvetica Neue&quot;, sans-serif; font-size: 12px; font-weight: 200;" fill="rgb(50, 49, 63)" stroke="none" stroke-width="1px">0.8</text></g><line x1="58" y1="0" x2="58" y2="178" fill="rgb(0, 0, 0)" stroke="rgb(204, 204, 204)" stroke-width="1px"></line></g></g><g transform="translate(58, 0)" clip-path="url(#clip_0)"><clipPath id="clip_0"><rect width="272" height="178"></rect></clipPath><g><g><g><line x1="0" y1="0" x2="0" y2="178" fill="rgb(0, 0, 0)" stroke="rgb(60, 60, 60)" stroke-width="1px" opacity="0.25"></line><line x1="24.727272727272727" y1="0" x2="24.727272727272727" y2="178" fill="rgb(0, 0, 0)" stroke="rgb(60, 60, 60)" stroke-width="1px" opacity="0.25"></line><line x1="49.45454545454545" y1="0" x2="49.45454545454545" y2="178" fill="rgb(0, 0, 0)" stroke="rgb(60, 60, 60)" stroke-width="1px" opacity="0.25"></line><line x1="74.18181818181817" y1="0" x2="74.18181818181817" y2="178" fill="rgb(0, 0, 0)" stroke="rgb(60, 60, 60)" stroke-width="1px" opacity="0.25"></line><line x1="98.9090909090909" y1="0" x2="98.9090909090909" y2="178" fill="rgb(0, 0, 0)" stroke="rgb(60, 60, 60)" stroke-width="1px" opacity="0.25"></line><line x1="123.63636363636363" y1="0" x2="123.63636363636363" y2="178" fill="rgb(0, 0, 0)" stroke="rgb(60, 60, 60)" stroke-width="1px" opacity="0.25"></line><line x1="148.36363636363635" y1="0" x2="148.36363636363635" y2="178" fill="rgb(0, 0, 0)" stroke="rgb(60, 60, 60)" stroke-width="1px" opacity="0.25"></line><line x1="173.0909090909091" y1="0" x2="173.0909090909091" y2="178" fill="rgb(0, 0, 0)" stroke="rgb(60, 60, 60)" stroke-width="1px" opacity="0.25"></line><line x1="197.8181818181818" y1="0" x2="197.8181818181818" y2="178" fill="rgb(0, 0, 0)" stroke="rgb(60, 60, 60)" stroke-width="1px" opacity="0.25"></line><line x1="222.54545454545456" y1="0" x2="222.54545454545456" y2="178" fill="rgb(0, 0, 0)" stroke="rgb(60, 60, 60)" stroke-width="1px" opacity="0.25"></line><line x1="247.27272727272725" y1="0" x2="247.27272727272725" y2="178" fill="rgb(0, 0, 0)" stroke="rgb(60, 60, 60)" stroke-width="1px" opacity="0.25"></line><line x1="272" y1="0" x2="272" y2="178" fill="rgb(0, 0, 0)" stroke="rgb(60, 60, 60)" stroke-width="1px" opacity="0.25"></line></g><g><line x1="0" y1="178" x2="272" y2="178" fill="rgb(0, 0, 0)" stroke="rgb(60, 60, 60)" stroke-width="1px" opacity="0.25"></line><line x1="0" y1="158.22222222222223" x2="272" y2="158.22222222222223" fill="rgb(0, 0, 0)" stroke="rgb(60, 60, 60)" stroke-width="1px" opacity="0.25"></line><line x1="0" y1="138.44444444444446" x2="272" y2="138.44444444444446" fill="rgb(0, 0, 0)" stroke="rgb(60, 60, 60)" stroke-width="1px" opacity="0.25"></line><line x1="0" y1="118.66666666666666" x2="272" y2="118.66666666666666" fill="rgb(0, 0, 0)" stroke="rgb(60, 60, 60)" stroke-width="1px" opacity="0.25"></line><line x1="0" y1="98.88888888888889" x2="272" y2="98.88888888888889" fill="rgb(0, 0, 0)" stroke="rgb(60, 60, 60)" stroke-width="1px" opacity="0.25"></line><line x1="0" y1="79.1111111111111" x2="272" y2="79.1111111111111" fill="rgb(0, 0, 0)" stroke="rgb(60, 60, 60)" stroke-width="1px" opacity="0.25"></line><line x1="0" y1="59.33333333333334" x2="272" y2="59.33333333333334" fill="rgb(0, 0, 0)" stroke="rgb(60, 60, 60)" stroke-width="1px" opacity="0.25"></line><line x1="0" y1="39.55555555555557" x2="272" y2="39.55555555555557" fill="rgb(0, 0, 0)" stroke="rgb(60, 60, 60)" stroke-width="1px" opacity="0.25"></line><line x1="0" y1="19.7777777777778" x2="272" y2="19.7777777777778" fill="rgb(0, 0, 0)" stroke="rgb(60, 60, 60)" stroke-width="1px" opacity="0.25"></line><line x1="0" y1="0" x2="272" y2="0" fill="rgb(0, 0, 0)" stroke="rgb(60, 60, 60)" stroke-width="1px" opacity="0.25"></line></g></g></g><g><g><line x1="0" y1="158.22222222222223" x2="272" y2="158.22222222222223" fill="rgb(0, 0, 0)" stroke="rgb(153, 153, 153)" stroke-width="1.5px"></line></g></g><g><g><line x1="24.727272727272727" y1="0" x2="24.727272727272727" y2="178" fill="rgb(0, 0, 0)" stroke="rgb(153, 153, 153)" stroke-width="1.5px"></line></g></g><g><g><g><g><g><path stroke="rgb(255, 112, 67)" stroke-width="2px" d="M24.727272727272727,22.991577545801817L25.963636363636365,38.91376125481395L27.200000000000003,47.752513357841536L28.436363636363634,52.07333575734516L29.672727272727272,54.3959687667048L30.909090909090907,57.79921615024516L32.14545454545455,61.82408300286896L33.38181818181818,63.89139174535977L34.61818181818182,66.27686927703354L35.85454545454545,67.43670994168977L37.090909090909086,69.65867369464728L38.32727272727273,70.83423591487251L39.56363636363636,73.23461521502259L40.8,75.46756455202669L42.03636363636363,76.2617687687561L43.27272727272727,77.551568576891L44.50909090909091,79.00635335312313L45.74545454545454,80.19039174580244L46.981818181818184,81.11592123254344L48.21818181818182,82.322445530131L49.45454545454545,82.58914595623305L50.690909090909095,85.04540356278373L51.92727272727273,85.6394981217492L53.163636363636364,86.06643547555167L54.400000000000006,87.67022578601173L55.63636363636364,88.77910820000916L56.87272727272727,89.36868834053817L58.10909090909091,89.11459128617331L59.345454545454544,89.68430477910061L60.58181818181818,91.04386730765735L61.81818181818181,91.4844222454336L63.054545454545455,91.40562566747964L64.2909090909091,92.10617319755283L65.52727272727273,92.4829833616245L66.76363636363637,93.09066001151805L68,94.10447613660672L69.23636363636363,95.00217284809628L70.47272727272727,95.47013075688376L71.7090909090909,95.83604421952103L72.94545454545455,96.63404329502536L74.18181818181817,96.91307997126944L75.41818181818182,97.64776571281087L76.65454545454546,97.63050770042899L77.89090909090909,97.88559868175042L79.12727272727273,98.8067926064391L80.36363636363637,99.83412943593004L81.6,99.6550853760984L82.83636363636364,100.16081284820524L84.07272727272726,100.93589439529258L85.30909090909091,101.04133591840265L86.54545454545455,101.3846360366271L87.78181818181818,101.6645369138099L89.01818181818182,101.33553666837949L90.25454545454546,101.89125498315516L91.49090909090908,102.6370515145382L92.72727272727272,102.25607790587786L93.96363636363637,102.87266132457138L95.19999999999999,103.15109273526917L96.43636363636364,103.48753545191863L97.67272727272727,103.81590319842951L98.9090909090909,104.93670404920165L100.14545454545454,105.4537959659912L101.38181818181819,105.75082209033013L102.61818181818181,105.62760176453337L103.85454545454546,106.04535268130576L105.0909090909091,107.61566751098901L106.32727272727273,106.8683924092627L107.56363636363636,107.69586561735464L108.80000000000001,107.93805329239629L110.03636363636363,107.40544375454475L111.27272727272728,108.38657111994148L112.50909090909092,108.09954544944597L113.74545454545454,108.22427699657763L114.98181818181818,109.19022319266026L116.21818181818182,109.23443621657917L117.45454545454545,109.55756675691316L118.69090909090909,109.82711765462703L119.92727272727274,109.9160590805285L121.16363636363636,110.0089943073793L122.4,110.07131101398623L123.63636363636363,110.58256233492202L124.87272727272727,110.90550813332422L126.10909090909091,111.13714608569742L127.34545454545454,111.6168122246386L128.5818181818182,112.34103065325614L129.8181818181818,112.59335787451543L131.05454545454546,112.12089164932998L132.2909090909091,112.92500003902374L133.52727272727273,112.65324674616544L134.76363636363638,112.89027908055822L136,114.43652343980443L137.23636363636362,114.28393419986813L138.47272727272727,114.34471014052804L139.70909090909092,115.02081006248235L140.94545454545454,114.963048591425L142.1818181818182,115.46392912387117L143.4181818181818,114.81952753893097L144.65454545454546,114.60779689489738L145.8909090909091,115.4047296846247L147.12727272727273,115.6253442051611L148.36363636363635,116.32103576622681L149.60000000000002,116.51526895182695L150.83636363636364,116.63503065318287L152.07272727272726,116.22306865287739L153.3090909090909,116.7748470389156L154.54545454545456,117.01963540679728L155.78181818181818,116.66090784264846L157.01818181818183,117.56284378378868L158.25454545454545,118.04062225930127L159.49090909090907,118.19817254451254L160.72727272727275,118.71995120682058L161.96363636363637,119.3521889851753L163.2,119.00068043905085L164.43636363636364,118.41021119828905L165.6727272727273,119.0580089022603L166.9090909090909,119.53166945622351L168.14545454545453,119.92184181386489L169.38181818181818,120.2091737259549L170.61818181818182,119.94457295617858L171.85454545454547,120.32214445255372L173.0909090909091,120.5313771548798L174.3272727272727,120.69893325597957L175.56363636363636,120.16198984985766L176.8,120.0313381790101L178.03636363636363,121.10398440593359L179.27272727272725,121.27796648429825L180.50909090909093,121.70648572337822L181.74545454545455,122.07869285572221L182.98181818181817,122.41829275029093L184.21818181818182,122.94983239070226L185.45454545454544,122.95025046392337L186.6909090909091,123.35087679327627L187.92727272727274,123.874246702267L189.16363636363636,124.52748552898959L190.39999999999998,124.76495619579393L191.63636363636365,125.31981946341074L192.87272727272727,125.99161833379459L194.1090909090909,126.15386620142999L195.34545454545454,126.13069309844605L196.5818181818182,126.6709736602083L197.8181818181818,127.3067384835692L199.05454545454546,127.79306646512288L200.29090909090908,128.11625596082013L201.52727272727273,128.24231520080713L202.76363636363638,128.73391530848698L204,129.09782144323614L205.23636363636362,129.80407003035853L206.47272727272727,130.3822611618283L207.70909090909092,130.53912441753138L208.94545454545454,130.8366407046087L210.1818181818182,130.93936827053167L211.4181818181818,131.06242511830453L212.65454545454546,131.3471514936656L213.8909090909091,131.93596063857166L215.12727272727273,132.20470744056436L216.36363636363635,132.58385014212553L217.60000000000002,132.79699744190629L218.83636363636364,132.8518668338012L220.07272727272726,132.94384047269267L221.3090909090909,133.3364072507719L222.54545454545456,133.8097473660767L223.78181818181818,134.11400992815322L225.01818181818183,134.22954881078775L226.25454545454545,134.45225669343006L227.49090909090907,134.60855891081266L228.72727272727275,134.88461775511712L229.96363636363637,135.3677319966236L231.2,135.57448472541117L232.43636363636364,136.0153852036621L233.6727272727273,136.09938677668063L234.9090909090909,136.35061793504516L236.14545454545453,136.58014430788177L237.38181818181818,136.5108515777079L238.61818181818182,137.14098673542995L239.85454545454547,137.32842639375127L241.0909090909091,137.22087187475333L242.3272727272727,137.44864793761394" style="fill: none;" fill="none"></path></g></g></g></g><g opacity="0.2"><g><g><g><path stroke="rgb(255, 112, 67)" stroke-width="2px" d="M24.727272727272727,22.991577545801817L25.963636363636365,48.46707148022122L27.200000000000003,56.237715376747985L28.436363636363634,57.15462289916145L29.672727272727272,57.428398423724715L30.909090909090907,62.50713245073956L32.14545454545455,67.57970699999068L33.38181818181818,66.90554773807526L34.61818181818182,69.79498528109657L35.85454545454545,69.1589381562339L37.090909090909086,72.97146627638075L38.32727272727273,72.59118188752069L39.56363636363636,76.82734651035734L40.8,78.8126139773263L42.03636363636363,77.45214153660669L43.27272727272727,79.48535862233904L44.50909090909091,81.18791490130955L45.74545454545454,81.96614870760176L46.981818181818184,82.50407446755304L48.21818181818182,84.13212169541254L49.45454545454545,82.9891819689009L50.690909090909095,88.72970914840698L51.92727272727273,86.53062823083665L53.163636363636364,86.7068364487754L54.400000000000006,90.07589985264673L55.63636363636364,90.44242709212834L56.87272727272727,90.25305704275767L58.10909090909091,88.73344609472487L59.345454545454544,90.53887449370491L60.58181818181818,93.08321034908296L61.81818181818181,92.14525450600519L63.054545454545455,91.28743081622655L64.2909090909091,93.15699440903134L65.52727272727273,93.0481985807419L66.76363636363637,94.00217496024239L68,95.6252002980974L69.23636363636363,96.34871790144179L70.47272727272727,96.17206761572096L71.7090909090909,96.38491441143884L72.94545454545455,97.83104190561507L74.18181818181817,97.33163498507606L75.41818181818182,98.7497943242391L76.65454545454546,97.60462068186867L77.89090909090909,98.2682351536221L79.12727272727273,100.18858349323274L80.36363636363637,101.37513468000624L81.6,99.38651928636763L82.83636363636364,100.91940405633714L84.07272727272726,102.09851671589746L85.30909090909091,101.19949820306566L86.54545454545455,101.8995862139596L87.78181818181818,102.08438822958205L89.01818181818182,100.84203630023534L90.25454545454546,102.72483245531718L91.49090909090908,103.7557463116116L92.72727272727272,101.68461749288771L93.96363636363637,103.7975364526113L95.19999999999999,103.56873985131583L96.43636363636364,103.99219952689278L97.67272727272727,104.30845481819577L98.9090909090909,106.61790532535977L100.14545454545454,106.2294338411755L101.38181818181819,106.19636127683852L102.61818181818181,105.44277127583823L103.85454545454546,106.67197905646431L105.0909090909091,109.97113975551393L106.32727272727273,105.74747975667319L107.56363636363636,108.93707542949254L108.80000000000001,108.30133480495877L110.03636363636363,106.60652944776747L111.27272727272728,109.85826216803657L112.50909090909092,107.66900694370271L113.74545454545454,108.41137431727516L114.98181818181818,110.6391424867842L116.21818181818182,109.30075575245752L117.45454545454545,110.04226256741418L118.69090909090909,110.23144400119783L119.92727272727274,110.0494712193807L121.16363636363636,110.1483971476555L122.4,110.16478607389662L123.63636363636363,111.34943931632573L124.87272727272727,111.38992683092754L126.10909090909091,111.48460301425722L127.34545454545454,112.33631143305037L128.5818181818182,113.42735829618242L129.8181818181818,112.97184870640437L131.05454545454546,111.41219231155183L132.2909090909091,114.1311626235644L133.52727272727273,112.24561680687799L134.76363636363638,113.24582758214738L136,116.75588997867374L137.23636363636362,114.05505033996371L138.47272727272727,114.43587405151791L139.70909090909092,116.03495994541382L140.94545454545454,114.87640638483896L142.1818181818182,116.21524992254047L143.4181818181818,113.85292516152064L144.65454545454546,114.290200928847L145.8909090909091,116.60012886921565L147.12727272727273,115.95626598596573L148.36363636363635,117.3645731078254L149.60000000000002,116.80661873022716L150.83636363636364,116.81467320521674L152.07272727272726,115.6051256524192L153.3090909090909,117.6025146179729L154.54545454545456,117.38681795861987L155.78181818181818,116.1228164964252L157.01818181818183,118.915747695499L158.25454545454545,118.75728997257022L159.49090909090907,118.43449797232947L160.72727272727275,119.50261920028262L161.96363636363637,120.30054565270743L163.2,118.47341761986415L164.43636363636364,117.52450733714633L165.6727272727273,120.0297054582172L166.9090909090909,120.2421602871683L168.14545454545453,120.50710035032697L169.38181818181818,120.64017159408994L170.61818181818182,119.5476718015141L171.85454545454547,120.88850169711642L173.0909090909091,120.84522620836894L174.3272727272727,120.95026740762924L175.56363636363636,119.35657474067477L176.8,119.83536067273883L178.03636363636363,122.71295374631882L179.27272727272725,121.53893960184521L180.50909090909093,122.3492645819982L181.74545454545455,122.63700355423822L182.98181818181817,122.92769259214401L184.21818181818182,123.74714185131921L185.45454545454544,122.95087757375506L186.6909090909091,123.95181628730563L187.92727272727274,124.6593015657531L189.16363636363636,125.50734376907349L190.39999999999998,125.12116219600043L191.63636363636365,126.15211436483597L192.87272727272727,126.99931663937039L194.1090909090909,126.39723800288307L195.34545454545454,126.09593344397015L196.5818181818182,127.48139450285171L197.8181818181818,128.26038571861056L199.05454545454546,128.52255843745337L200.29090909090908,128.60104020436603L201.52727272727273,128.43140406078763L202.76363636363638,129.47131547000674L204,129.6436806453599L205.23636363636362,130.8634429110421L206.47272727272727,131.24954785903293L207.70909090909092,130.774419301086L208.94545454545454,131.28291513522464L210.1818181818182,131.09345961941614L211.4181818181818,131.2470103899638L212.65454545454546,131.77424105670718L213.8909090909091,132.81917435593076L215.12727272727273,132.60782764355343L216.36363636363635,133.15256419446735L217.60000000000002,133.11671839157742L218.83636363636364,132.93417092164356L220.07272727272726,133.08180093102985L221.3090909090909,133.92525741789075L222.54545454545456,134.5197575390339L223.78181818181818,134.570403771268L225.01818181818183,134.40285713473955L226.25454545454545,134.78631851739354L227.49090909090907,134.84301223688655L228.72727272727275,135.29870602157382L229.96363636363637,136.09240335888333L231.2,135.8846138185925L232.43636363636364,136.67673592103853L233.6727272727273,136.22538913620843L234.9090909090909,136.72746467259196L236.14545454545453,136.92443386713663L237.38181818181818,136.4069124824471L238.61818181818182,138.08618947201305L239.85454545454547,137.60958588123322L241.0909090909091,137.05954009625646L242.3272727272727,137.79031203190485" style="fill: none;" fill="none"></path></g></g></g></g></g></g><g transform="translate(58, 178)" clip-path="url(#clip_1)"><clipPath id="clip_1"><rect width="272" height="22"></rect></clipPath><g><g><line x1="0" y1="0" x2="0" y2="5" style="visibility: inherit;" fill="rgb(0, 0, 0)" stroke="rgb(204, 204, 204)" stroke-width="1px"></line><line x1="24.727272727272727" y1="0" x2="24.727272727272727" y2="5" style="visibility: inherit;" fill="rgb(0, 0, 0)" stroke="rgb(204, 204, 204)" stroke-width="1px"></line><line x1="49.45454545454545" y1="0" x2="49.45454545454545" y2="5" style="visibility: inherit;" fill="rgb(0, 0, 0)" stroke="rgb(204, 204, 204)" stroke-width="1px"></line><line x1="74.18181818181817" y1="0" x2="74.18181818181817" y2="5" style="visibility: inherit;" fill="rgb(0, 0, 0)" stroke="rgb(204, 204, 204)" stroke-width="1px"></line><line x1="98.9090909090909" y1="0" x2="98.9090909090909" y2="5" style="visibility: inherit;" fill="rgb(0, 0, 0)" stroke="rgb(204, 204, 204)" stroke-width="1px"></line><line x1="123.63636363636363" y1="0" x2="123.63636363636363" y2="5" style="visibility: inherit;" fill="rgb(0, 0, 0)" stroke="rgb(204, 204, 204)" stroke-width="1px"></line><line x1="148.36363636363635" y1="0" x2="148.36363636363635" y2="5" style="visibility: inherit;" fill="rgb(0, 0, 0)" stroke="rgb(204, 204, 204)" stroke-width="1px"></line><line x1="173.0909090909091" y1="0" x2="173.0909090909091" y2="5" style="visibility: inherit;" fill="rgb(0, 0, 0)" stroke="rgb(204, 204, 204)" stroke-width="1px"></line><line x1="197.8181818181818" y1="0" x2="197.8181818181818" y2="5" style="visibility: inherit;" fill="rgb(0, 0, 0)" stroke="rgb(204, 204, 204)" stroke-width="1px"></line><line x1="222.54545454545456" y1="0" x2="222.54545454545456" y2="5" style="visibility: inherit;" fill="rgb(0, 0, 0)" stroke="rgb(204, 204, 204)" stroke-width="1px"></line><line x1="247.27272727272725" y1="0" x2="247.27272727272725" y2="5" style="visibility: inherit;" fill="rgb(0, 0, 0)" stroke="rgb(204, 204, 204)" stroke-width="1px"></line><line x1="272" y1="0" x2="272" y2="5" style="visibility: inherit;" fill="rgb(0, 0, 0)" stroke="rgb(204, 204, 204)" stroke-width="1px"></line></g><g transform="translate(0, 8)"><text x="0" y="0" dx="0em" dy="0.95em" style="text-anchor: middle; visibility: hidden; font-family: &quot;Helvetica Neue&quot;, sans-serif; font-size: 12px; font-weight: 200;" fill="rgb(50, 49, 63)" stroke="none" stroke-width="1px">-20</text><text x="24.727272727272727" y="0" dx="0em" dy="0.95em" style="text-anchor: middle; visibility: inherit; font-family: &quot;Helvetica Neue&quot;, sans-serif; font-size: 12px; font-weight: 200;" fill="rgb(50, 49, 63)" stroke="none" stroke-width="1px">0</text><text x="49.45454545454545" y="0" dx="0em" dy="0.95em" style="text-anchor: middle; visibility: hidden; font-family: &quot;Helvetica Neue&quot;, sans-serif; font-size: 12px; font-weight: 200;" fill="rgb(50, 49, 63)" stroke="none" stroke-width="1px">20</text><text x="74.18181818181817" y="0" dx="0em" dy="0.95em" style="text-anchor: middle; visibility: inherit; font-family: &quot;Helvetica Neue&quot;, sans-serif; font-size: 12px; font-weight: 200;" fill="rgb(50, 49, 63)" stroke="none" stroke-width="1px">40</text><text x="98.9090909090909" y="0" dx="0em" dy="0.95em" style="text-anchor: middle; visibility: hidden; font-family: &quot;Helvetica Neue&quot;, sans-serif; font-size: 12px; font-weight: 200;" fill="rgb(50, 49, 63)" stroke="none" stroke-width="1px">60</text><text x="123.63636363636363" y="0" dx="0em" dy="0.95em" style="text-anchor: middle; visibility: inherit; font-family: &quot;Helvetica Neue&quot;, sans-serif; font-size: 12px; font-weight: 200;" fill="rgb(50, 49, 63)" stroke="none" stroke-width="1px">80</text><text x="148.36363636363635" y="0" dx="0em" dy="0.95em" style="text-anchor: middle; visibility: hidden; font-family: &quot;Helvetica Neue&quot;, sans-serif; font-size: 12px; font-weight: 200;" fill="rgb(50, 49, 63)" stroke="none" stroke-width="1px">100</text><text x="173.0909090909091" y="0" dx="0em" dy="0.95em" style="text-anchor: middle; visibility: inherit; font-family: &quot;Helvetica Neue&quot;, sans-serif; font-size: 12px; font-weight: 200;" fill="rgb(50, 49, 63)" stroke="none" stroke-width="1px">120</text><text x="197.8181818181818" y="0" dx="0em" dy="0.95em" style="text-anchor: middle; visibility: hidden; font-family: &quot;Helvetica Neue&quot;, sans-serif; font-size: 12px; font-weight: 200;" fill="rgb(50, 49, 63)" stroke="none" stroke-width="1px">140</text><text x="222.54545454545456" y="0" dx="0em" dy="0.95em" style="text-anchor: middle; visibility: inherit; font-family: &quot;Helvetica Neue&quot;, sans-serif; font-size: 12px; font-weight: 200;" fill="rgb(50, 49, 63)" stroke="none" stroke-width="1px">160</text><text x="247.27272727272725" y="0" dx="0em" dy="0.95em" style="text-anchor: middle; visibility: hidden; font-family: &quot;Helvetica Neue&quot;, sans-serif; font-size: 12px; font-weight: 200;" fill="rgb(50, 49, 63)" stroke="none" stroke-width="1px">180</text><text x="272" y="0" dx="0em" dy="0.95em" style="text-anchor: middle; visibility: hidden; font-family: &quot;Helvetica Neue&quot;, sans-serif; font-size: 12px; font-weight: 200;" fill="rgb(50, 49, 63)" stroke="none" stroke-width="1px">200</text></g><line x1="0" y1="0" x2="272" y2="0" fill="rgb(0, 0, 0)" stroke="rgb(204, 204, 204)" stroke-width="1px"></line></g></g></g></g></svg>