<svg viewBox="0 0 330 200" xmlns="http://www.w3.org/2000/svg"><g><g><g><g><g><line x1="58" y1="178" x2="53" y2="178" style="visibility: inherit;" fill="rgb(0, 0, 0)" stroke="rgb(204, 204, 204)" stroke-width="1px"></line><line x1="58" y1="155.75" x2="53" y2="155.75" style="visibility: inherit;" fill="rgb(0, 0, 0)" stroke="rgb(204, 204, 204)" stroke-width="1px"></line><line x1="58" y1="133.5" x2="53" y2="133.5" style="visibility: inherit;" fill="rgb(0, 0, 0)" stroke="rgb(204, 204, 204)" stroke-width="1px"></line><line x1="58" y1="111.25" x2="53" y2="111.25" style="visibility: inherit;" fill="rgb(0, 0, 0)" stroke="rgb(204, 204, 204)" stroke-width="1px"></line><line x1="58" y1="89" x2="53" y2="89" style="visibility: inherit;" fill="rgb(0, 0, 0)" stroke="rgb(204, 204, 204)" stroke-width="1px"></line><line x1="58" y1="66.75" x2="53" y2="66.75" style="visibility: inherit;" fill="rgb(0, 0, 0)" stroke="rgb(204, 204, 204)" stroke-width="1px"></line><line x1="58" y1="44.5" x2="53" y2="44.5" style="visibility: inherit;" fill="rgb(0, 0, 0)" stroke="rgb(204, 204, 204)" stroke-width="1px"></line><line x1="58" y1="22.25" x2="53" y2="22.25" style="visibility: inherit;" fill="rgb(0, 0, 0)" stroke="rgb(204, 204, 204)" stroke-width="1px"></line><line x1="58" y1="0" x2="53" y2="0" style="visibility: inherit;" fill="rgb(0, 0, 0)" stroke="rgb(204, 204, 204)" stroke-width="1px"></line></g><g transform="translate(48, 0)"><text x="0" y="178" dx="0em" dy="0.3em" style="text-anchor: end; visibility: hidden; font-family: &quot;Helvetica Neue&quot;, sans-serif; font-size: 12px; font-weight: 200;" fill="rgb(50, 49, 63)" stroke="none" stroke-width="1px">-0.5</text><text x="0" y="155.75" dx="0em" dy="0.3em" style="text-anchor: end; visibility: inherit; font-family: &quot;Helvetica Neue&quot;, sans-serif; font-size: 12px; font-weight: 200;" fill="rgb(50, 49, 63)" stroke="none" stroke-width="1px">0</text><text x="0" y="133.5" dx="0em" dy="0.3em" style="text-anchor: end; visibility: hidden; font-family: &quot;Helvetica Neue&quot;, sans-serif; font-size: 12px; font-weight: 200;" fill="rgb(50, 49, 63)" stroke="none" stroke-width="1px">0.5</text><text x="0" y="111.25" dx="0em" dy="0.3em" style="text-anchor: end; visibility: inherit; font-family: &quot;Helvetica Neue&quot;, sans-serif; font-size: 12px; font-weight: 200;" fill="rgb(50, 49, 63)" stroke="none" stroke-width="1px">1</text><text x="0" y="89" dx="0em" dy="0.3em" style="text-anchor: end; visibility: hidden; font-family: &quot;Helvetica Neue&quot;, sans-serif; font-size: 12px; font-weight: 200;" fill="rgb(50, 49, 63)" stroke="none" stroke-width="1px">1.5</text><text x="0" y="66.75" dx="0em" dy="0.3em" style="text-anchor: end; visibility: inherit; font-family: &quot;Helvetica Neue&quot;, sans-serif; font-size: 12px; font-weight: 200;" fill="rgb(50, 49, 63)" stroke="none" stroke-width="1px">2</text><text x="0" y="44.5" dx="0em" dy="0.3em" style="text-anchor: end; visibility: hidden; font-family: &quot;Helvetica Neue&quot;, sans-serif; font-size: 12px; font-weight: 200;" fill="rgb(50, 49, 63)" stroke="none" stroke-width="1px">2.5</text><text x="0" y="22.25" dx="0em" dy="0.3em" style="text-anchor: end; visibility: inherit; font-family: &quot;Helvetica Neue&quot;, sans-serif; font-size: 12px; font-weight: 200;" fill="rgb(50, 49, 63)" stroke="none" stroke-width="1px">3</text><text x="0" y="0" dx="0em" dy="0.3em" style="text-anchor: end; visibility: hidden; font-family: &quot;Helvetica Neue&quot;, sans-serif; font-size: 12px; font-weight: 200;" fill="rgb(50, 49, 63)" stroke="none" stroke-width="1px">3.5</text></g><line x1="58" y1="0" x2="58" y2="178" fill="rgb(0, 0, 0)" stroke="rgb(204, 204, 204)" stroke-width="1px"></line></g></g><g transform="translate(58, 0)" clip-path="url(#clip_0)"><clipPath id="clip_0"><rect width="272" height="178"></rect></clipPath><g><g><g><line x1="0" y1="0" x2="0" y2="178" fill="rgb(0, 0, 0)" stroke="rgb(60, 60, 60)" stroke-width="1px" opacity="0.25"></line><line x1="18.133333333333333" y1="0" x2="18.133333333333333" y2="178" fill="rgb(0, 0, 0)" stroke="rgb(60, 60, 60)" stroke-width="1px" opacity="0.25"></line><line x1="36.266666666666666" y1="0" x2="36.266666666666666" y2="178" fill="rgb(0, 0, 0)" stroke="rgb(60, 60, 60)" stroke-width="1px" opacity="0.25"></line><line x1="54.400000000000006" y1="0" x2="54.400000000000006" y2="178" fill="rgb(0, 0, 0)" stroke="rgb(60, 60, 60)" stroke-width="1px" opacity="0.25"></line><line x1="72.53333333333333" y1="0" x2="72.53333333333333" y2="178" fill="rgb(0, 0, 0)" stroke="rgb(60, 60, 60)" stroke-width="1px" opacity="0.25"></line><line x1="90.66666666666666" y1="0" x2="90.66666666666666" y2="178" fill="rgb(0, 0, 0)" stroke="rgb(60, 60, 60)" stroke-width="1px" opacity="0.25"></line><line x1="108.80000000000001" y1="0" x2="108.80000000000001" y2="178" fill="rgb(0, 0, 0)" stroke="rgb(60, 60, 60)" stroke-width="1px" opacity="0.25"></line><line x1="126.93333333333334" y1="0" x2="126.93333333333334" y2="178" fill="rgb(0, 0, 0)" stroke="rgb(60, 60, 60)" stroke-width="1px" opacity="0.25"></line><line x1="145.06666666666666" y1="0" x2="145.06666666666666" y2="178" fill="rgb(0, 0, 0)" stroke="rgb(60, 60, 60)" stroke-width="1px" opacity="0.25"></line><line x1="163.2" y1="0" x2="163.2" y2="178" fill="rgb(0, 0, 0)" stroke="rgb(60, 60, 60)" stroke-width="1px" opacity="0.25"></line><line x1="181.33333333333331" y1="0" x2="181.33333333333331" y2="178" fill="rgb(0, 0, 0)" stroke="rgb(60, 60, 60)" stroke-width="1px" opacity="0.25"></line><line x1="199.46666666666664" y1="0" x2="199.46666666666664" y2="178" fill="rgb(0, 0, 0)" stroke="rgb(60, 60, 60)" stroke-width="1px" opacity="0.25"></line><line x1="217.60000000000002" y1="0" x2="217.60000000000002" y2="178" fill="rgb(0, 0, 0)" stroke="rgb(60, 60, 60)" stroke-width="1px" opacity="0.25"></line><line x1="235.73333333333335" y1="0" x2="235.73333333333335" y2="178" fill="rgb(0, 0, 0)" stroke="rgb(60, 60, 60)" stroke-width="1px" opacity="0.25"></line><line x1="253.86666666666667" y1="0" x2="253.86666666666667" y2="178" fill="rgb(0, 0, 0)" stroke="rgb(60, 60, 60)" stroke-width="1px" opacity="0.25"></line><line x1="272" y1="0" x2="272" y2="178" fill="rgb(0, 0, 0)" stroke="rgb(60, 60, 60)" stroke-width="1px" opacity="0.25"></line></g><g><line x1="0" y1="178" x2="272" y2="178" fill="rgb(0, 0, 0)" stroke="rgb(60, 60, 60)" stroke-width="1px" opacity="0.25"></line><line x1="0" y1="155.75" x2="272" y2="155.75" fill="rgb(0, 0, 0)" stroke="rgb(60, 60, 60)" stroke-width="1px" opacity="0.25"></line><line x1="0" y1="133.5" x2="272" y2="133.5" fill="rgb(0, 0, 0)" stroke="rgb(60, 60, 60)" stroke-width="1px" opacity="0.25"></line><line x1="0" y1="111.25" x2="272" y2="111.25" fill="rgb(0, 0, 0)" stroke="rgb(60, 60, 60)" stroke-width="1px" opacity="0.25"></line><line x1="0" y1="89" x2="272" y2="89" fill="rgb(0, 0, 0)" stroke="rgb(60, 60, 60)" stroke-width="1px" opacity="0.25"></line><line x1="0" y1="66.75" x2="272" y2="66.75" fill="rgb(0, 0, 0)" stroke="rgb(60, 60, 60)" stroke-width="1px" opacity="0.25"></line><line x1="0" y1="44.5" x2="272" y2="44.5" fill="rgb(0, 0, 0)" stroke="rgb(60, 60, 60)" stroke-width="1px" opacity="0.25"></line><line x1="0" y1="22.25" x2="272" y2="22.25" fill="rgb(0, 0, 0)" stroke="rgb(60, 60, 60)" stroke-width="1px" opacity="0.25"></line><line x1="0" y1="0" x2="272" y2="0" fill="rgb(0, 0, 0)" stroke="rgb(60, 60, 60)" stroke-width="1px" opacity="0.25"></line></g></g></g><g><g><line x1="0" y1="155.75" x2="272" y2="155.75" fill="rgb(0, 0, 0)" stroke="rgb(153, 153, 153)" stroke-width="1.5px"></line></g></g><g><g><line x1="18.133333333333333" y1="0" x2="18.133333333333333" y2="178" fill="rgb(0, 0, 0)" stroke="rgb(153, 153, 153)" stroke-width="1.5px"></line></g></g><g><g><g><g><g><path stroke="rgb(255, 112, 67)" stroke-width="2px" d="M18.133333333333333,75.29344439506531L19.040000000000003,83.10282595455647L19.946666666666665,87.11531575237002L20.85333333333333,90.16164175508655L21.76,91.83354421715866L22.666666666666664,93.39216060300231L23.573333333333334,91.76402453003378L24.48,93.8949565925269L25.386666666666667,95.12571266659343L26.293333333333333,95.77295348325639L27.200000000000003,96.22179201203285L28.106666666666666,98.22769232225545L29.013333333333335,98.72207771772496L29.92,98.87498069814588L30.826666666666664,99.1200588330221L31.733333333333334,98.74991926552732L32.64,99.72207157849815L33.54666666666667,99.53955950277127L34.45333333333333,100.59864991545449L35.36,101.23192812310708L36.266666666666666,100.35466492545108L37.17333333333333,101.95442102567027L38.080000000000005,101.72375831961456L38.98666666666667,102.57852948591679L39.89333333333333,103.56446570848523L40.8,103.92584728073122L41.70666666666666,104.38922046684223L42.61333333333334,104.91971303056799L43.52,105.79661602519998L44.42666666666666,105.78883227380723L45.33333333333333,105.85927819156835L46.24,106.27497279938888L47.14666666666667,106.39708886906598L48.053333333333335,107.05885966745699L48.96,107.5545789334619L49.86666666666666,107.66837906558136L50.77333333333333,106.8292580774282L51.68,108.32517178201947L52.586666666666666,107.8989165495929L53.49333333333333,108.36971065292687L54.400000000000006,108.67011101800415L55.306666666666665,108.88865411147987L56.21333333333333,109.3332138054791L57.12,110.02180535764839L58.02666666666667,107.9693891235325L58.93333333333334,109.04120023424952L59.84,110.14243180383707L60.74666666666666,110.94847064514458L61.65333333333333,111.42621833861219L62.56,111.72019608486143L63.46666666666667,105.19988922872034L63.46666666666667,102.49509973881581L64.37333333333333,101.86868855689617L65.28,103.50291627249086L66.18666666666667,105.81421414376025L67.09333333333333,107.7250766000798L68,108.96939785728786L68.90666666666667,110.42935539156178L69.81333333333333,111.2167225531935L70.72,111.67305122925042L71.62666666666667,112.94335020251992L72.53333333333333,113.43514749209835L73.44,114.11242387772057L74.34666666666666,115.80441335487637L75.25333333333333,116.3944920280473L76.16000000000001,115.96364010446646L77.06666666666666,117.189891046723L77.97333333333334,117.94996948626058L78.88,118.8749800895835L79.78666666666666,119.50994802565485L80.69333333333334,118.65257845551437L81.6,118.33594455856482L82.50666666666667,119.98781770788669L83.41333333333333,121.1685526032629L84.32,121.64618111010685L85.22666666666667,122.37893545839962L86.13333333333333,121.5363552583085L87.04,122.64860652761618L87.94666666666666,122.35733188913441L88.85333333333332,123.08935599163875L89.76,123.597620026086L90.66666666666666,124.21570460546866L91.57333333333334,125.30275078146967L92.48,125.34855768400021L93.38666666666667,126.02064030955785L94.29333333333334,126.10453375333877L95.19999999999999,125.9292497405668L96.10666666666667,126.1708730202472L97.01333333333334,125.65262118229603L97.92,126.58202244788012L98.82666666666667,127.08053151339055L99.73333333333332,127.86948235970593L100.64,128.3147660025469L101.54666666666667,128.40208816102216L102.45333333333333,128.0301759575073L103.36,128.33610419835236L104.26666666666668,127.9448411131238L105.17333333333333,129.45730100061508L106.08,130.62989665261514L106.98666666666666,130.79760423416857L107.89333333333333,129.94901942679263L108.80000000000001,131.3338895646869L109.70666666666666,131.67174197483888L110.61333333333333,131.97000053673287L111.52,132.47947419374765L112.42666666666666,132.71607698613155L113.33333333333334,132.15701606043427L114.24,132.50484795670658L115.14666666666668,133.06742748201458L116.05333333333334,132.3689329420362L116.96,133.0976010259887L117.86666666666667,132.89561907630565L118.77333333333333,133.09131081212402L119.68,133.53020550196672L120.58666666666667,133.46255962482277L121.49333333333333,133.90035433430185L122.4,134.57312188064284L123.30666666666666,132.40593669125573L124.21333333333334,133.4685369331189L125.12,132.5375762223332L126.02666666666666,133.3522106849628L126.93333333333334,134.3845411088155L127.83999999999999,134.84196908748663L128.74666666666667,134.4519311575682L129.65333333333334,135.0467685156221L130.56,135.26885970790116L131.46666666666667,134.4183553478654L132.37333333333333,135.5036047948322L133.28,135.97153681832083L134.18666666666667,136.10427688549476L135.09333333333333,136.72062374943803L136,136.81899570700114L136.90666666666667,137.44162294433465L137.81333333333333,137.6864477525112L138.72,135.54648055612785L139.62666666666667,136.45367993104304L140.53333333333336,137.35726910345463L141.44,137.96349096007768L142.34666666666666,138.1088954610087L143.25333333333333,138.2888281048809L144.16,138.26355093726363L145.06666666666666,138.17524717455416L145.97333333333333,138.5859936666805L146.88,138.53434553100578L147.78666666666666,138.99988718243785L148.69333333333333,139.0686980808517L149.60000000000002,138.19956246761922L150.50666666666666,138.45109532325534L151.41333333333333,138.8405385437552L152.32000000000002,137.92377293842696L153.22666666666666,138.8890573903183L154.13333333333333,94.95847887541412L155.04,83.5321162387464L155.9466666666667,77.75990015534958L156.85333333333332,73.95976790349721L157.76,75.38407581186915L158.66666666666669,76.51975625238792L159.57333333333332,77.09568572927698L160.48,77.99483464294185L161.38666666666668,80.42258504708714L162.29333333333335,80.05378958988253L163.2,78.13048628215829L164.10666666666668,80.36348123100304L165.01333333333335,75.02309433667006L165.92,75.39339399366465L166.82666666666665,75.30747659223607L167.73333333333335,75.20191254149275L168.64,77.08269273001191L169.54666666666665,76.84268449996851L170.45333333333335,75.62915279421178L171.36,77.20566750736813L172.26666666666665,78.70556011898387L173.17333333333335,79.37713832320613L174.08,81.91558455623293L174.98666666666665,81.32185139177504L175.89333333333332,82.62690504740632L176.8,85.710341980165L177.70666666666665,82.99967570907219L178.61333333333332,86.11554357890095L179.52,86.17138255526905L180.42666666666668,85.67820072704723L181.33333333333331,86.58170569261414L182.24,89.83925140095056L183.14666666666668,90.84949021454037L184.0533333333333,92.95332873413194L184.96,91.79516432612675L185.86666666666667,93.85991660314524L186.77333333333334,88.8936959240301L187.67999999999998,90.2798588832297L188.58666666666667,91.38497947216499L189.49333333333334,91.46663579082768L190.39999999999998,91.18697729549575L191.30666666666667,92.24475535656076L192.21333333333334,75.90418911519683L193.12,59.26951594676399L194.02666666666667,54.088515684162516L194.93333333333334,51.530920127126535L195.84,51.73908311074554L196.74666666666667,50.23451198307025L197.65333333333334,52.28175481061547L198.56,51.414686488511606L199.46666666666664,55.04563172304776L200.37333333333333,55.33773507859796L201.28,57.6814138304382L202.18666666666667,63.28969744510587L203.09333333333333,68.14212879936181L204,70.17962809443642L204.90666666666667,69.11665916466814L205.81333333333333,71.57881977572501L206.72,75.17790993699109L207.62666666666667,72.53184817223952L208.53333333333336,72.97609680884604L209.44,76.08151475187256L210.34666666666666,74.26992394683428L211.25333333333333,77.62361813877622L212.16,81.02607558545233L213.06666666666666,83.64555191026189L213.97333333333333,85.0870045365456L214.88,86.02446081290027L215.78666666666666,83.70321043759215L216.69333333333333,82.85809307354467L217.60000000000002,83.2926737133132L218.50666666666666,84.54724493405024L219.41333333333333,86.15634581315994L220.32000000000002,89.83427837412643L221.22666666666666,92.06732432199173L222.13333333333333,91.46429157348068L223.04,90.80123491341824L223.9466666666667,93.37612921747538L224.85333333333332,95.0159413263379L225.76,95.93476611645093L226.66666666666669,96.1641309635107L227.57333333333332,94.34685399390843L228.48,93.6257601157283L229.38666666666668,97.58838357779116L230.29333333333335,97.43634041698415L231.2,96.83147702545905L232.10666666666668,96.32655338007798L233.01333333333335,99.72806708549614L233.92,100.09293012937995L234.82666666666665,101.89344411564524L235.73333333333335,101.71200688763055L236.64,101.40738420536276L237.54666666666665,101.76461937934253L238.45333333333335,102.11558913534935L239.36,104.90943898764883L240.26666666666665,104.82430683378955L241.17333333333335,105.52832104447234L242.08,107.46131762077061L242.98666666666665,104.24004206782371L243.89333333333332,104.38567079142206L244.8,53.36675384661838L245.70666666666665,43.10765125168135L246.61333333333332,41.48484293110832L247.52,36.64391078643598L248.42666666666668,38.42845853622316L249.33333333333331,40.49152255329821L250.24,41.05490274592242L251.14666666666668,41.51411826231481" style="fill: none;" fill="none"></path></g></g></g></g><g opacity="0.2"><g><g><g><path stroke="rgb(255, 112, 67)" stroke-width="2px" d="M18.133333333333333,75.29344439506531L19.040000000000003,87.78845489025116L19.946666666666665,90.96730595827103L20.85333333333333,93.74412113428116L21.76,94.01638007164001L22.666666666666664,95.54828816652298L23.573333333333334,89.43576389551163L24.48,97.00187599658966L25.386666666666667,96.94083881378174L26.293333333333333,96.73403066396713L27.200000000000003,96.89097887277603L28.106666666666666,101.22562676668167L29.013333333333335,99.46204155683517L29.92,99.10403561592102L30.826666666666664,99.48738795518875L31.733333333333334,98.19497096538544L32.64,101.17988866567612L33.54666666666667,99.2658377289772L34.45333333333333,102.18712419271469L35.36,102.18178755044937L36.266666666666666,99.03881824016571L37.17333333333333,104.35400253534317L38.080000000000005,101.37776881456375L38.98666666666667,103.8606761097908L39.89333333333333,105.04336303472519L40.8,104.46791809797287L41.70666666666666,105.08427906036377L42.61333333333334,105.71545106172562L43.52,107.11196970939636L44.42666666666666,105.77715665102005L45.33333333333333,105.9649470448494L46.24,106.89851462841034L47.14666666666667,106.58026295900345L48.053333333333335,108.05151581764221L48.96,108.29815781116486L49.86666666666666,107.83907926082611L50.77333333333333,105.570576608181L51.68,110.56904232501984L52.586666666666666,107.25953370332718L53.49333333333333,109.07590180635452L54.400000000000006,109.1207115650177L55.306666666666665,109.21646875143051L56.21333333333333,110.00005334615707L57.12,111.0546926856041L58.02666666666667,104.890764772892L58.93333333333334,110.64891690015793L59.84,111.79427915811539L60.74666666666666,112.15752890706062L61.65333333333333,112.14283987879753L62.56,112.16116270422935L63.46666666666667,95.41942894458771L63.46666666666667,98.43791550397873L64.37333333333333,100.92907178401947L65.28,105.9542578458786L66.18666666666667,109.2811609506607L67.09333333333333,110.59137028455734L68,110.83587974309921L68.90666666666667,112.61929169297218L69.81333333333333,112.39777329564095L70.72,112.35754424333572L71.62666666666667,114.84879866242409L72.53333333333333,114.17284342646599L73.44,115.12833845615387L74.34666666666666,118.34239757061005L75.25333333333333,117.27961003780365L76.16000000000001,115.31736221909523L77.06666666666666,119.0292674601078L77.97333333333334,119.09008714556694L78.88,120.26249599456787L79.78666666666666,120.46239992976189L80.69333333333334,117.36652410030365L81.6,117.86099371314049L82.50666666666667,122.4656274318695L83.41333333333333,122.93965494632721L84.32,122.36262387037277L85.22666666666667,123.47806698083878L86.13333333333333,120.27248495817184L87.04,124.31698343157768L87.94666666666666,121.92041993141174L88.85333333333332,124.18739214539528L89.76,124.36001607775688L90.66666666666666,125.14283147454262L91.57333333333334,126.93332004547119L92.48,125.41726803779602L93.38666666666667,127.02876424789429L94.29333333333334,126.23037391901016L95.19999999999999,125.66632372140884L96.10666666666667,126.53330793976784L97.01333333333334,124.87524342536926L97.92,127.97612434625626L98.82666666666667,127.82829511165619L99.73333333333332,129.052908629179L100.64,128.98269146680832L101.54666666666667,128.53307139873505L102.45333333333333,127.47230765223503L103.36,128.7949965596199L104.26666666666668,127.35794648528099L105.17333333333333,131.72599083185196L106.08,132.38879013061523L106.98666666666666,131.04916560649872L107.89333333333333,128.67614221572876L108.80000000000001,133.41119477152824L109.70666666666666,132.1785205900669L110.61333333333333,132.41738837957382L111.52,133.2436846792698L112.42666666666666,133.0709811747074L113.33333333333334,131.31842467188835L114.24,133.02659580111504L115.14666666666668,133.91129676997662L116.05333333333334,131.32119113206863L116.96,134.19060315191746L117.86666666666667,132.59264615178108L118.77333333333333,133.3848484158516L119.68,134.18854753673077L120.58666666666667,133.36109080910683L121.49333333333333,134.55704639852047L122.4,135.5822732001543L123.30666666666666,129.15515890717506L124.21333333333334,135.0624372959137L125.12,131.14113515615463L126.02666666666666,134.5741623789072L126.93333333333334,135.93303674459457L127.83999999999999,135.52811105549335L128.74666666666667,133.86687426269054L129.65333333333334,135.9390245527029L130.56,135.60199649631977L131.46666666666667,133.14259880781174L132.37333333333333,137.13147896528244L133.28,136.67343485355377L134.18666666666667,136.30338698625565L135.09333333333333,137.64514404535294L136,136.96655364334583L136.90666666666667,138.37556380033493L137.81333333333333,138.05368496477604L138.72,132.3365297615528L139.62666666666667,137.81447899341583L140.53333333333336,138.712652862072L141.44,138.87282374501228L142.34666666666666,138.3270022124052L143.25333333333333,138.5587270706892L144.16,138.22563518583775L145.06666666666666,138.04279153048992L145.97333333333333,139.20211340487003L146.88,138.45687332749367L147.78666666666666,139.69819965958595L148.69333333333333,139.17191442847252L149.60000000000002,136.8958590477705L150.50666666666666,138.82839460670948L151.41333333333333,139.42470337450504L152.32000000000002,136.5486245304346L153.22666666666666,140.3369840681553L154.13333333333333,29.06261110305786L155.04,66.39257228374481L155.9466666666667,69.10157603025436L156.85333333333332,68.25956952571869L157.76,77.52053767442703L158.66666666666669,78.22327691316605L159.57333333333332,77.9595799446106L160.48,79.34355801343918L161.38666666666668,84.06421065330505L162.29333333333335,79.50059640407562L163.2,75.2455313205719L164.10666666666668,83.71297365427017L165.01333333333335,67.0125139951706L165.92,75.9488434791565L166.82666666666665,75.17860049009323L167.73333333333335,75.04356646537781L168.64,79.90386301279068L169.54666666666665,76.48267215490341L170.45333333333335,73.80885523557663L171.36,79.57043957710266L172.26666666666665,80.95539903640747L173.17333333333335,80.38450562953949L174.08,85.72325390577316L174.98666666666665,80.4312516450882L175.89333333333332,84.58448553085327L176.8,90.33549737930298L177.70666666666665,78.93367630243301L178.61333333333332,90.7893453836441L179.52,86.25514101982117L180.42666666666668,84.93842798471451L181.33333333333331,87.93696314096451L182.24,94.7255699634552L183.14666666666668,92.36484843492508L184.0533333333333,96.10908651351929L184.96,90.05791771411896L185.86666666666667,96.95704501867294L186.77333333333334,81.44436490535736L187.67999999999998,92.35910332202911L188.58666666666667,93.04266035556793L189.49333333333334,91.58912026882172L190.39999999999998,90.76748955249786L191.30666666666667,93.83142244815826L192.21333333333334,51.39333975315094L193.12,34.317506194114685L194.02666666666667,46.317015290260315L194.93333333333334,47.69452679157257L195.84,52.05132758617401L196.74666666666667,47.97765529155731L197.65333333333334,55.35261905193329L198.56,50.114084005355835L199.46666666666664,60.49204957485199L200.37333333333333,55.77589011192322L201.28,61.19693195819855L202.18666666666667,71.70212286710739L203.09333333333333,75.4207758307457L204,73.23587703704834L204.90666666666667,67.52220577001572L205.81333333333333,75.27206069231033L206.72,80.57654517889023L207.62666666666667,68.56275552511215L208.53333333333336,73.6424697637558L209.44,80.73964166641235L210.34666666666666,71.55253773927689L211.25333333333333,82.65415942668915L212.16,86.12976175546646L213.06666666666666,87.5747663974762L213.97333333333333,87.24918347597122L214.88,87.43064522743225L215.78666666666666,80.22133487462997L216.69333333333333,81.59041702747345L217.60000000000002,83.944544672966L218.50666666666666,86.42910176515579L219.41333333333333,88.5699971318245L220.32000000000002,95.35117721557617L221.22666666666666,95.41689324378967L222.13333333333333,90.55974245071411L223.04,89.80664992332458L223.9466666666667,97.2384706735611L224.85333333333332,97.47565948963165L225.76,97.31300330162048L226.66666666666669,96.50817823410034L227.57333333333332,91.620938539505L228.48,92.5441192984581L229.38666666666668,103.53231877088547L230.29333333333335,97.20827567577362L231.2,95.92418193817139L232.10666666666668,95.56916791200638L233.01333333333335,104.83033764362335L233.92,100.64022469520569L234.82666666666665,104.59421509504318L235.73333333333335,101.43985104560852L236.64,100.95045018196106L237.54666666666665,102.3004721403122L238.45333333333335,102.64204376935959L239.36,109.10021376609802L240.26666666666665,104.69660860300064L241.17333333333335,106.58434236049652L242.08,110.36081248521805L242.98666666666665,99.40812873840332L243.89333333333332,104.60411387681961L244.8,-23.161621570587158L245.70666666666665,27.718997359275818L246.61333333333332,39.05063045024872L247.52,29.38251256942749L248.42666666666668,41.10528016090393L249.33333333333331,43.58611857891083L250.24,41.899973034858704L251.14666666666668,42.20294153690338" style="fill: none;" fill="none"></path></g></g></g></g></g></g><g transform="translate(58, 178)" clip-path="url(#clip_1)"><clipPath id="clip_1"><rect width="272" height="22"></rect></clipPath><g><g><line x1="0" y1="0" x2="0" y2="5" style="visibility: inherit;" fill="rgb(0, 0, 0)" stroke="rgb(204, 204, 204)" stroke-width="1px"></line><line x1="18.133333333333333" y1="0" x2="18.133333333333333" y2="5" style="visibility: inherit;" fill="rgb(0, 0, 0)" stroke="rgb(204, 204, 204)" stroke-width="1px"></line><line x1="36.266666666666666" y1="0" x2="36.266666666666666" y2="5" style="visibility: inherit;" fill="rgb(0, 0, 0)" stroke="rgb(204, 204, 204)" stroke-width="1px"></line><line x1="54.400000000000006" y1="0" x2="54.400000000000006" y2="5" style="visibility: inherit;" fill="rgb(0, 0, 0)" stroke="rgb(204, 204, 204)" stroke-width="1px"></line><line x1="72.53333333333333" y1="0" x2="72.53333333333333" y2="5" style="visibility: inherit;" fill="rgb(0, 0, 0)" stroke="rgb(204, 204, 204)" stroke-width="1px"></line><line x1="90.66666666666666" y1="0" x2="90.66666666666666" y2="5" style="visibility: inherit;" fill="rgb(0, 0, 0)" stroke="rgb(204, 204, 204)" stroke-width="1px"></line><line x1="108.80000000000001" y1="0" x2="108.80000000000001" y2="5" style="visibility: inherit;" fill="rgb(0, 0, 0)" stroke="rgb(204, 204, 204)" stroke-width="1px"></line><line x1="126.93333333333334" y1="0" x2="126.93333333333334" y2="5" style="visibility: inherit;" fill="rgb(0, 0, 0)" stroke="rgb(204, 204, 204)" stroke-width="1px"></line><line x1="145.06666666666666" y1="0" x2="145.06666666666666" y2="5" style="visibility: inherit;" fill="rgb(0, 0, 0)" stroke="rgb(204, 204, 204)" stroke-width="1px"></line><line x1="163.2" y1="0" x2="163.2" y2="5" style="visibility: inherit;" fill="rgb(0, 0, 0)" stroke="rgb(204, 204, 204)" stroke-width="1px"></line><line x1="181.33333333333331" y1="0" x2="181.33333333333331" y2="5" style="visibility: inherit;" fill="rgb(0, 0, 0)" stroke="rgb(204, 204, 204)" stroke-width="1px"></line><line x1="199.46666666666664" y1="0" x2="199.46666666666664" y2="5" style="visibility: inherit;" fill="rgb(0, 0, 0)" stroke="rgb(204, 204, 204)" stroke-width="1px"></line><line x1="217.60000000000002" y1="0" x2="217.60000000000002" y2="5" style="visibility: inherit;" fill="rgb(0, 0, 0)" stroke="rgb(204, 204, 204)" stroke-width="1px"></line><line x1="235.73333333333335" y1="0" x2="235.73333333333335" y2="5" style="visibility: inherit;" fill="rgb(0, 0, 0)" stroke="rgb(204, 204, 204)" stroke-width="1px"></line><line x1="253.86666666666667" y1="0" x2="253.86666666666667" y2="5" style="visibility: inherit;" fill="rgb(0, 0, 0)" stroke="rgb(204, 204, 204)" stroke-width="1px"></line><line x1="272" y1="0" x2="272" y2="5" style="visibility: inherit;" fill="rgb(0, 0, 0)" stroke="rgb(204, 204, 204)" stroke-width="1px"></line></g><g transform="translate(0, 8)"><text x="0" y="0" dx="0em" dy="0.95em" style="text-anchor: middle; visibility: hidden; font-family: &quot;Helvetica Neue&quot;, sans-serif; font-size: 12px; font-weight: 200;" fill="rgb(50, 49, 63)" stroke="none" stroke-width="1px">-20</text><text x="18.133333333333333" y="0" dx="0em" dy="0.95em" style="text-anchor: middle; visibility: inherit; font-family: &quot;Helvetica Neue&quot;, sans-serif; font-size: 12px; font-weight: 200;" fill="rgb(50, 49, 63)" stroke="none" stroke-width="1px">0</text><text x="36.266666666666666" y="0" dx="0em" dy="0.95em" style="text-anchor: middle; visibility: hidden; font-family: &quot;Helvetica Neue&quot;, sans-serif; font-size: 12px; font-weight: 200;" fill="rgb(50, 49, 63)" stroke="none" stroke-width="1px">20</text><text x="54.400000000000006" y="0" dx="0em" dy="0.95em" style="text-anchor: middle; visibility: inherit; font-family: &quot;Helvetica Neue&quot;, sans-serif; font-size: 12px; font-weight: 200;" fill="rgb(50, 49, 63)" stroke="none" stroke-width="1px">40</text><text x="72.53333333333333" y="0" dx="0em" dy="0.95em" style="text-anchor: middle; visibility: hidden; font-family: &quot;Helvetica Neue&quot;, sans-serif; font-size: 12px; font-weight: 200;" fill="rgb(50, 49, 63)" stroke="none" stroke-width="1px">60</text><text x="90.66666666666666" y="0" dx="0em" dy="0.95em" style="text-anchor: middle; visibility: inherit; font-family: &quot;Helvetica Neue&quot;, sans-serif; font-size: 12px; font-weight: 200;" fill="rgb(50, 49, 63)" stroke="none" stroke-width="1px">80</text><text x="108.80000000000001" y="0" dx="0em" dy="0.95em" style="text-anchor: middle; visibility: hidden; font-family: &quot;Helvetica Neue&quot;, sans-serif; font-size: 12px; font-weight: 200;" fill="rgb(50, 49, 63)" stroke="none" stroke-width="1px">100</text><text x="126.93333333333334" y="0" dx="0em" dy="0.95em" style="text-anchor: middle; visibility: inherit; font-family: &quot;Helvetica Neue&quot;, sans-serif; font-size: 12px; font-weight: 200;" fill="rgb(50, 49, 63)" stroke="none" stroke-width="1px">120</text><text x="145.06666666666666" y="0" dx="0em" dy="0.95em" style="text-anchor: middle; visibility: hidden; font-family: &quot;Helvetica Neue&quot;, sans-serif; font-size: 12px; font-weight: 200;" fill="rgb(50, 49, 63)" stroke="none" stroke-width="1px">140</text><text x="163.2" y="0" dx="0em" dy="0.95em" style="text-anchor: middle; visibility: inherit; font-family: &quot;Helvetica Neue&quot;, sans-serif; font-size: 12px; font-weight: 200;" fill="rgb(50, 49, 63)" stroke="none" stroke-width="1px">160</text><text x="181.33333333333331" y="0" dx="0em" dy="0.95em" style="text-anchor: middle; visibility: hidden; font-family: &quot;Helvetica Neue&quot;, sans-serif; font-size: 12px; font-weight: 200;" fill="rgb(50, 49, 63)" stroke="none" stroke-width="1px">180</text><text x="199.46666666666664" y="0" dx="0em" dy="0.95em" style="text-anchor: middle; visibility: inherit; font-family: &quot;Helvetica Neue&quot;, sans-serif; font-size: 12px; font-weight: 200;" fill="rgb(50, 49, 63)" stroke="none" stroke-width="1px">200</text><text x="217.60000000000002" y="0" dx="0em" dy="0.95em" style="text-anchor: middle; visibility: hidden; font-family: &quot;Helvetica Neue&quot;, sans-serif; font-size: 12px; font-weight: 200;" fill="rgb(50, 49, 63)" stroke="none" stroke-width="1px">220</text><text x="235.73333333333335" y="0" dx="0em" dy="0.95em" style="text-anchor: middle; visibility: inherit; font-family: &quot;Helvetica Neue&quot;, sans-serif; font-size: 12px; font-weight: 200;" fill="rgb(50, 49, 63)" stroke="none" stroke-width="1px">240</text><text x="253.86666666666667" y="0" dx="0em" dy="0.95em" style="text-anchor: middle; visibility: hidden; font-family: &quot;Helvetica Neue&quot;, sans-serif; font-size: 12px; font-weight: 200;" fill="rgb(50, 49, 63)" stroke="none" stroke-width="1px">260</text><text x="272" y="0" dx="0em" dy="0.95em" style="text-anchor: middle; visibility: hidden; font-family: &quot;Helvetica Neue&quot;, sans-serif; font-size: 12px; font-weight: 200;" fill="rgb(50, 49, 63)" stroke="none" stroke-width="1px">280</text></g><line x1="0" y1="0" x2="272" y2="0" fill="rgb(0, 0, 0)" stroke="rgb(204, 204, 204)" stroke-width="1px"></line></g></g></g></g></svg>