<svg viewBox="0 0 330 200" xmlns="http://www.w3.org/2000/svg"><g><g><g><g><g><line x1="70" y1="178" x2="65" y2="178" style="visibility: inherit;" fill="rgb(0, 0, 0)" stroke="rgb(204, 204, 204)" stroke-width="1px"></line><line x1="70" y1="163.16666666666666" x2="65" y2="163.16666666666666" style="visibility: inherit;" fill="rgb(0, 0, 0)" stroke="rgb(204, 204, 204)" stroke-width="1px"></line><line x1="70" y1="148.33333333333334" x2="65" y2="148.33333333333334" style="visibility: inherit;" fill="rgb(0, 0, 0)" stroke="rgb(204, 204, 204)" stroke-width="1px"></line><line x1="70" y1="133.5" x2="65" y2="133.5" style="visibility: inherit;" fill="rgb(0, 0, 0)" stroke="rgb(204, 204, 204)" stroke-width="1px"></line><line x1="70" y1="118.66666666666667" x2="65" y2="118.66666666666667" style="visibility: inherit;" fill="rgb(0, 0, 0)" stroke="rgb(204, 204, 204)" stroke-width="1px"></line><line x1="70" y1="103.83333333333334" x2="65" y2="103.83333333333334" style="visibility: inherit;" fill="rgb(0, 0, 0)" stroke="rgb(204, 204, 204)" stroke-width="1px"></line><line x1="70" y1="89.00000000000001" x2="65" y2="89.00000000000001" style="visibility: inherit;" fill="rgb(0, 0, 0)" stroke="rgb(204, 204, 204)" stroke-width="1px"></line><line x1="70" y1="74.16666666666669" x2="65" y2="74.16666666666669" style="visibility: inherit;" fill="rgb(0, 0, 0)" stroke="rgb(204, 204, 204)" stroke-width="1px"></line><line x1="70" y1="59.33333333333336" x2="65" y2="59.33333333333336" style="visibility: inherit;" fill="rgb(0, 0, 0)" stroke="rgb(204, 204, 204)" stroke-width="1px"></line><line x1="70" y1="44.50000000000003" x2="65" y2="44.50000000000003" style="visibility: inherit;" fill="rgb(0, 0, 0)" stroke="rgb(204, 204, 204)" stroke-width="1px"></line><line x1="70" y1="29.666666666666686" x2="65" y2="29.666666666666686" style="visibility: inherit;" fill="rgb(0, 0, 0)" stroke="rgb(204, 204, 204)" stroke-width="1px"></line><line x1="70" y1="14.833333333333343" x2="65" y2="14.833333333333343" style="visibility: inherit;" fill="rgb(0, 0, 0)" stroke="rgb(204, 204, 204)" stroke-width="1px"></line><line x1="70" y1="0" x2="65" y2="0" style="visibility: inherit;" fill="rgb(0, 0, 0)" stroke="rgb(204, 204, 204)" stroke-width="1px"></line></g><g transform="translate(60, 0)"><text x="0" y="178" dx="0em" dy="0.3em" style="text-anchor: end; visibility: hidden; font-family: &quot;Helvetica Neue&quot;, sans-serif; font-size: 12px; font-weight: 200;" fill="rgb(50, 49, 63)" stroke="none" stroke-width="1px">-0.05</text><text x="0" y="163.16666666666666" dx="0em" dy="0.3em" style="text-anchor: end; visibility: inherit; font-family: &quot;Helvetica Neue&quot;, sans-serif; font-size: 12px; font-weight: 200;" fill="rgb(50, 49, 63)" stroke="none" stroke-width="1px">0</text><text x="0" y="148.33333333333334" dx="0em" dy="0.3em" style="text-anchor: end; visibility: hidden; font-family: &quot;Helvetica Neue&quot;, sans-serif; font-size: 12px; font-weight: 200;" fill="rgb(50, 49, 63)" stroke="none" stroke-width="1px">0.05</text><text x="0" y="133.5" dx="0em" dy="0.3em" style="text-anchor: end; visibility: inherit; font-family: &quot;Helvetica Neue&quot;, sans-serif; font-size: 12px; font-weight: 200;" fill="rgb(50, 49, 63)" stroke="none" stroke-width="1px">0.1</text><text x="0" y="118.66666666666667" dx="0em" dy="0.3em" style="text-anchor: end; visibility: hidden; font-family: &quot;Helvetica Neue&quot;, sans-serif; font-size: 12px; font-weight: 200;" fill="rgb(50, 49, 63)" stroke="none" stroke-width="1px">0.15</text><text x="0" y="103.83333333333334" dx="0em" dy="0.3em" style="text-anchor: end; visibility: inherit; font-family: &quot;Helvetica Neue&quot;, sans-serif; font-size: 12px; font-weight: 200;" fill="rgb(50, 49, 63)" stroke="none" stroke-width="1px">0.2</text><text x="0" y="89.00000000000001" dx="0em" dy="0.3em" style="text-anchor: end; visibility: hidden; font-family: &quot;Helvetica Neue&quot;, sans-serif; font-size: 12px; font-weight: 200;" fill="rgb(50, 49, 63)" stroke="none" stroke-width="1px">0.25</text><text x="0" y="74.16666666666669" dx="0em" dy="0.3em" style="text-anchor: end; visibility: inherit; font-family: &quot;Helvetica Neue&quot;, sans-serif; font-size: 12px; font-weight: 200;" fill="rgb(50, 49, 63)" stroke="none" stroke-width="1px">0.3</text><text x="0" y="59.33333333333336" dx="0em" dy="0.3em" style="text-anchor: end; visibility: hidden; font-family: &quot;Helvetica Neue&quot;, sans-serif; font-size: 12px; font-weight: 200;" fill="rgb(50, 49, 63)" stroke="none" stroke-width="1px">0.35</text><text x="0" y="44.50000000000003" dx="0em" dy="0.3em" style="text-anchor: end; visibility: inherit; font-family: &quot;Helvetica Neue&quot;, sans-serif; font-size: 12px; font-weight: 200;" fill="rgb(50, 49, 63)" stroke="none" stroke-width="1px">0.4</text><text x="0" y="29.666666666666686" dx="0em" dy="0.3em" style="text-anchor: end; visibility: hidden; font-family: &quot;Helvetica Neue&quot;, sans-serif; font-size: 12px; font-weight: 200;" fill="rgb(50, 49, 63)" stroke="none" stroke-width="1px">0.45</text><text x="0" y="14.833333333333343" dx="0em" dy="0.3em" style="text-anchor: end; visibility: inherit; font-family: &quot;Helvetica Neue&quot;, sans-serif; font-size: 12px; font-weight: 200;" fill="rgb(50, 49, 63)" stroke="none" stroke-width="1px">0.5</text><text x="0" y="0" dx="0em" dy="0.3em" style="text-anchor: end; visibility: hidden; font-family: &quot;Helvetica Neue&quot;, sans-serif; font-size: 12px; font-weight: 200;" fill="rgb(50, 49, 63)" stroke="none" stroke-width="1px">0.55</text></g><line x1="70" y1="0" x2="70" y2="178" fill="rgb(0, 0, 0)" stroke="rgb(204, 204, 204)" stroke-width="1px"></line></g></g><g transform="translate(70, 0)" clip-path="url(#clip_0)"><clipPath id="clip_0"><rect width="260" height="178"></rect></clipPath><g><g><g><line x1="0" y1="0" x2="0" y2="178" fill="rgb(0, 0, 0)" stroke="rgb(60, 60, 60)" stroke-width="1px" opacity="0.25"></line><line x1="17.333333333333332" y1="0" x2="17.333333333333332" y2="178" fill="rgb(0, 0, 0)" stroke="rgb(60, 60, 60)" stroke-width="1px" opacity="0.25"></line><line x1="34.666666666666664" y1="0" x2="34.666666666666664" y2="178" fill="rgb(0, 0, 0)" stroke="rgb(60, 60, 60)" stroke-width="1px" opacity="0.25"></line><line x1="52" y1="0" x2="52" y2="178" fill="rgb(0, 0, 0)" stroke="rgb(60, 60, 60)" stroke-width="1px" opacity="0.25"></line><line x1="69.33333333333333" y1="0" x2="69.33333333333333" y2="178" fill="rgb(0, 0, 0)" stroke="rgb(60, 60, 60)" stroke-width="1px" opacity="0.25"></line><line x1="86.66666666666666" y1="0" x2="86.66666666666666" y2="178" fill="rgb(0, 0, 0)" stroke="rgb(60, 60, 60)" stroke-width="1px" opacity="0.25"></line><line x1="104" y1="0" x2="104" y2="178" fill="rgb(0, 0, 0)" stroke="rgb(60, 60, 60)" stroke-width="1px" opacity="0.25"></line><line x1="121.33333333333333" y1="0" x2="121.33333333333333" y2="178" fill="rgb(0, 0, 0)" stroke="rgb(60, 60, 60)" stroke-width="1px" opacity="0.25"></line><line x1="138.66666666666666" y1="0" x2="138.66666666666666" y2="178" fill="rgb(0, 0, 0)" stroke="rgb(60, 60, 60)" stroke-width="1px" opacity="0.25"></line><line x1="156" y1="0" x2="156" y2="178" fill="rgb(0, 0, 0)" stroke="rgb(60, 60, 60)" stroke-width="1px" opacity="0.25"></line><line x1="173.33333333333331" y1="0" x2="173.33333333333331" y2="178" fill="rgb(0, 0, 0)" stroke="rgb(60, 60, 60)" stroke-width="1px" opacity="0.25"></line><line x1="190.66666666666666" y1="0" x2="190.66666666666666" y2="178" fill="rgb(0, 0, 0)" stroke="rgb(60, 60, 60)" stroke-width="1px" opacity="0.25"></line><line x1="208" y1="0" x2="208" y2="178" fill="rgb(0, 0, 0)" stroke="rgb(60, 60, 60)" stroke-width="1px" opacity="0.25"></line><line x1="225.33333333333334" y1="0" x2="225.33333333333334" y2="178" fill="rgb(0, 0, 0)" stroke="rgb(60, 60, 60)" stroke-width="1px" opacity="0.25"></line><line x1="242.66666666666666" y1="0" x2="242.66666666666666" y2="178" fill="rgb(0, 0, 0)" stroke="rgb(60, 60, 60)" stroke-width="1px" opacity="0.25"></line><line x1="260" y1="0" x2="260" y2="178" fill="rgb(0, 0, 0)" stroke="rgb(60, 60, 60)" stroke-width="1px" opacity="0.25"></line></g><g><line x1="0" y1="178" x2="260" y2="178" fill="rgb(0, 0, 0)" stroke="rgb(60, 60, 60)" stroke-width="1px" opacity="0.25"></line><line x1="0" y1="163.16666666666666" x2="260" y2="163.16666666666666" fill="rgb(0, 0, 0)" stroke="rgb(60, 60, 60)" stroke-width="1px" opacity="0.25"></line><line x1="0" y1="148.33333333333334" x2="260" y2="148.33333333333334" fill="rgb(0, 0, 0)" stroke="rgb(60, 60, 60)" stroke-width="1px" opacity="0.25"></line><line x1="0" y1="133.5" x2="260" y2="133.5" fill="rgb(0, 0, 0)" stroke="rgb(60, 60, 60)" stroke-width="1px" opacity="0.25"></line><line x1="0" y1="118.66666666666667" x2="260" y2="118.66666666666667" fill="rgb(0, 0, 0)" stroke="rgb(60, 60, 60)" stroke-width="1px" opacity="0.25"></line><line x1="0" y1="103.83333333333334" x2="260" y2="103.83333333333334" fill="rgb(0, 0, 0)" stroke="rgb(60, 60, 60)" stroke-width="1px" opacity="0.25"></line><line x1="0" y1="89.00000000000001" x2="260" y2="89.00000000000001" fill="rgb(0, 0, 0)" stroke="rgb(60, 60, 60)" stroke-width="1px" opacity="0.25"></line><line x1="0" y1="74.16666666666669" x2="260" y2="74.16666666666669" fill="rgb(0, 0, 0)" stroke="rgb(60, 60, 60)" stroke-width="1px" opacity="0.25"></line><line x1="0" y1="59.33333333333336" x2="260" y2="59.33333333333336" fill="rgb(0, 0, 0)" stroke="rgb(60, 60, 60)" stroke-width="1px" opacity="0.25"></line><line x1="0" y1="44.50000000000003" x2="260" y2="44.50000000000003" fill="rgb(0, 0, 0)" stroke="rgb(60, 60, 60)" stroke-width="1px" opacity="0.25"></line><line x1="0" y1="29.666666666666686" x2="260" y2="29.666666666666686" fill="rgb(0, 0, 0)" stroke="rgb(60, 60, 60)" stroke-width="1px" opacity="0.25"></line><line x1="0" y1="14.833333333333343" x2="260" y2="14.833333333333343" fill="rgb(0, 0, 0)" stroke="rgb(60, 60, 60)" stroke-width="1px" opacity="0.25"></line><line x1="0" y1="0" x2="260" y2="0" fill="rgb(0, 0, 0)" stroke="rgb(60, 60, 60)" stroke-width="1px" opacity="0.25"></line></g></g></g><g><g><line x1="0" y1="163.16666666666666" x2="260" y2="163.16666666666666" fill="rgb(0, 0, 0)" stroke="rgb(153, 153, 153)" stroke-width="1.5px"></line></g></g><g><g><line x1="17.333333333333332" y1="0" x2="17.333333333333332" y2="178" fill="rgb(0, 0, 0)" stroke="rgb(153, 153, 153)" stroke-width="1.5px"></line></g></g><g><g><g><g><g><path stroke="rgb(255, 112, 67)" stroke-width="2px" d="M17.333333333333332,67.37094078461331L18.200000000000003,71.78205336381994L19.066666666666666,76.04667618282801L19.93333333333333,80.00659361693499L20.8,82.36981049075935L21.666666666666664,84.69382485362406L22.533333333333335,85.41261576650442L23.4,85.6427400067721L24.26666666666667,86.53883193189886L25.133333333333333,87.66681584610353L26,89.32977942040918L26.866666666666667,91.12019239933372L27.733333333333334,92.149662860938L28.6,93.18124574676898L29.466666666666665,93.69677091589165L30.333333333333332,94.03004802314132L31.2,94.24683510908794L32.06666666666667,94.06531999205752L32.93333333333334,94.81033044381087L33.800000000000004,95.89896067578628L34.666666666666664,96.96740092573631L35.53333333333333,97.94545339058801L36.400000000000006,97.5253249160219L37.266666666666666,98.1970575224793L38.13333333333333,99.3546167165927L39,100.61449035845472L39.86666666666666,100.50169073426578L40.733333333333334,101.43706521542988L41.6,102.6681197280799L42.46666666666667,101.85472255020662L43.33333333333333,102.52669689669288L44.2,103.02296147887157L45.06666666666667,102.97499135192197L45.93333333333333,103.8785214149899L46.8,105.02828813725036L47.666666666666664,106.22290469328905L48.53333333333334,107.1162453336391L49.4,107.6885381745413L50.266666666666666,107.39409494376835L51.13333333333333,107.17145926113959L52,106.55637408657832L52.86666666666667,107.35093910353253L53.733333333333334,108.22631008366311L54.6,108.72003268969407L55.46666666666667,109.0410786337333L56.333333333333336,110.1141496142427L57.2,110.02644075397401L58.06666666666666,110.79626663196076L58.93333333333333,111.1966387013727L59.800000000000004,111.27727547368276L60.666666666666664,103.57575840795798L60.666666666666664,99.70975847865866L61.53333333333333,98.83919305299999L62.4,100.41829726713237L63.26666666666667,102.58268752267499L64.13333333333334,104.49480212472277L65,105.95635455494595L65.86666666666667,107.60336455292808L66.73333333333333,107.58287443272654L67.60000000000001,109.02386581630942L68.46666666666665,110.08345674513643L69.33333333333333,110.65989641570371L70.2,111.4300674849152L71.06666666666666,113.38123831669886L71.93333333333334,113.32575972589093L72.80000000000001,112.52619758275493L73.66666666666667,113.94159780558354L74.53333333333333,115.15689128209993L75.39999999999999,116.67634663722819L76.26666666666667,117.86136981095021L77.13333333333334,118.24443661517984L78,118.9361897866751L78.86666666666667,119.84272911315114L79.73333333333332,121.10533291199776L80.6,120.76512595076744L81.46666666666667,121.22332894440126L82.33333333333333,121.30738709153115L83.2,122.54022951790517L84.06666666666666,122.88470869383511L84.93333333333334,123.43938665263632L85.8,123.77261250817445L86.66666666666666,124.60991427662174L87.53333333333333,125.0377910019688L88.4,125.04299638361128L89.26666666666667,125.86922771944836L90.13333333333334,126.12994560528338L91,126.28515092489246L91.86666666666666,127.04468422506525L92.73333333333333,127.61202632014519L93.6,127.66769571875274L94.46666666666667,128.49115117256684L95.33333333333333,129.47445643861002L96.2,129.52250251523003L97.06666666666668,130.0537561099808L97.93333333333332,129.84708860443516L98.8,129.7605931317398L99.66666666666667,130.62222361498607L100.53333333333333,131.7251707073065L101.4,132.47544093267194L102.26666666666667,133.0543986320659L103.13333333333334,133.61960215132422L104,134.86822125570566L104.86666666666666,134.74194467021977L105.73333333333333,135.053858017647L106.6,135.43506405694708L107.46666666666667,135.33909243112856L108.33333333333334,135.01412829418612L109.2,135.06908521051983L110.06666666666666,135.90290758607256L110.93333333333334,136.59909185527246L111.8,136.9342312281836L112.66666666666667,137.28518732381914L113.53333333333333,137.30144389863642L114.4,137.32204618689914L115.26666666666668,136.89058830522L116.13333333333333,137.06784704038998L117,137.65604732260803L117.86666666666666,137.3326904306354L118.73333333333333,137.77910961684836L119.60000000000001,138.40786261346292L120.46666666666667,138.20853954942834L121.33333333333333,138.43531289135504L122.19999999999999,138.6457344657287L123.06666666666666,139.36128409898907L123.93333333333334,140.14263510622558L124.8,139.7769534741917L125.66666666666667,139.65478172431858L126.53333333333335,140.37721836485747L127.39999999999999,140.67602738689354L128.26666666666668,141.27354870806715L129.13333333333333,141.9582023118173L130,141.84108243351588L130.86666666666665,142.49633215049153L131.73333333333335,142.90943073141125L132.6,143.15801840766795L133.46666666666667,142.73988399552024L134.33333333333334,143.52588482487232L135.20000000000002,143.5364457594635L136.06666666666666,143.8005264040201L136.9333333333333,143.64635506489094L137.8,143.48062903812456L138.66666666666666,143.49981877484478L139.53333333333333,143.7961277124001L140.4,143.70219169199746L141.26666666666668,144.2490709124423L142.13333333333333,144.10886166881028L143,144.4536400103003L143.86666666666667,144.80293992837846L144.73333333333332,145.2099911154146L145.60000000000002,145.07639798805127L146.46666666666667,145.61897990178073L147.33333333333334,78.60089611850783L148.2,52.13265296524331L149.06666666666666,39.364207303755876L149.93333333333334,34.476287688553384L150.79999999999998,37.50990904514396L151.66666666666669,38.28661445664014L152.53333333333333,42.507094620982684L153.4,45.558412734262106L154.26666666666668,46.712521606837896L155.13333333333333,48.377171787116055L156,49.27355777769873L156.86666666666667,51.72601676513507L157.73333333333335,52.273566956498755L158.6,56.662291603393484L159.46666666666664,56.765052602951016L160.33333333333334,58.369815758624256L161.2,59.480851236040536L162.06666666666666,61.948746663166176L162.93333333333334,63.690742442111045L163.8,63.318486699918836L164.66666666666666,65.45898992784416L165.53333333333336,66.02579817156551L166.4,66.2180697976384L167.26666666666665,67.62403374863666L168.13333333333333,69.19303827655118L169,69.58569695058546L169.86666666666667,69.06102398337771L170.73333333333332,72.05733264665912L171.6,72.15078740029202L172.46666666666667,73.39124471768936L173.33333333333331,74.25767127767325L174.20000000000002,73.55942181802862L175.06666666666666,73.05115676754956L175.93333333333334,77.78229049544082L176.8,79.99447580794822L177.66666666666666,81.65540317269362L178.53333333333333,81.29656562550187L179.39999999999998,81.95756168371432L180.26666666666668,83.1029266548514L181.13333333333333,83.4712980607565L182,83.29818741596237L182.86666666666667,83.28055253893037L183.73333333333332,82.42910564305325L184.6,83.33004639364448L185.46666666666667,86.39480727007289L186.33333333333334,89.52497207973579L187.2,92.75451461387186L188.0666666666667,94.80436797487245L188.93333333333334,96.37372792689506L189.79999999999998,97.72234332717561L190.66666666666666,99.59433723384403L191.53333333333333,100.95816168126025L192.4,101.9689432716562L193.26666666666665,104.59124838528197L194.13333333333335,106.3743307265669L195,108.71874996064285L195.86666666666665,109.28001406215536L196.73333333333335,109.71299122824018L197.6,110.18069792024541L198.46666666666667,110.67116797506162L199.33333333333334,110.97372551683196L200.20000000000002,111.49278056178655L201.06666666666666,110.78857877386113L201.9333333333333,112.59445596456032L202.8,114.91403916310966L203.66666666666666,116.27726686893921L204.53333333333333,115.63880764781847L205.4,116.4730718493824L206.26666666666668,117.96315312546679L207.13333333333333,118.7785049845508L208,119.01238482215393L208.86666666666667,119.93481904477908L209.73333333333332,120.35859103725969L210.60000000000002,120.67039377526416L211.46666666666667,121.86498325885916L212.33333333333334,122.50513721200775L213.2,123.12619382953417L214.06666666666666,123.88732404003005L214.93333333333334,123.74416039281763L215.79999999999998,124.07083345588255L216.66666666666669,124.200735782402L217.53333333333333,125.37234137742755L218.4,124.91174431416812L219.26666666666668,125.60127854013497L220.13333333333333,126.06969877479904L221,126.57399426141441L221.86666666666667,126.63879036648507L222.73333333333335,127.9298603877034L223.6,127.87470669217544L224.46666666666664,128.70779943466766L225.33333333333334,128.6931606809333L226.2,129.07052363634318L227.06666666666666,129.11101212112234L227.93333333333334,130.27678523068505L228.8,131.7678262766493L229.66666666666666,131.5073596185223L230.53333333333336,131.58313426449553L231.4,131.55993354762387L232.26666666666665,131.4447919733015L233.13333333333333,131.8042006774756L234,87.50880835159695L234.86666666666667,75.74052890362786L235.73333333333332,71.68708981805511L236.6,71.46675867478133L237.46666666666667,69.56624642197339L238.33333333333331,71.59730151008L239.20000000000002,70.57452005571385L240.06666666666666,72.52182764863724" style="fill: none;" fill="none"></path></g></g></g></g><g opacity="0.2"><g><g><g><path stroke="rgb(255, 112, 67)" stroke-width="2px" d="M17.333333333333332,67.37094078461331L18.200000000000003,74.42872091134392L19.066666666666666,80.14071408907574L19.93333333333333,84.66345651944481L20.8,85.45522644122444L21.666666666666664,87.90877336263658L22.533333333333335,86.44049827257794L23.4,85.97826335827511L24.26666666666667,87.86039346456529L25.133333333333333,89.34174049894017L26,91.80914182464284L26.866666666666667,93.79606851935388L27.733333333333334,93.69050715367001L28.6,94.7265990972519L29.466666666666665,94.46945268909138L30.333333333333332,94.52972863117856L31.2,94.57192400097848L32.06666666666667,93.79309340318045L32.93333333333334,95.9277326265971L33.800000000000004,97.53180651863417L34.666666666666664,98.5700027048588L35.53333333333333,99.41249990463258L36.400000000000006,96.89514049887659L37.266666666666666,99.20464847485226L38.13333333333333,101.0909472803275L39,102.50429544846219L39.86666666666666,100.33249158660573L40.733333333333334,102.84012550115587L41.6,104.51470036307973L42.46666666666667,100.63462723294896L43.33333333333333,103.53465819358827L44.2,103.76735825339955L45.06666666666667,102.90303616722426L45.93333333333333,105.23381644487382L46.8,106.75293817122778L47.666666666666664,108.01482949654263L48.53333333333334,108.45625628034276L49.4,108.54697743058206L50.266666666666666,106.9524300992489L51.13333333333333,106.83750573794049L52,105.63374632596971L52.86666666666667,108.5427866280079L53.733333333333334,109.53936655322713L54.6,109.46061659852666L55.46666666666667,109.5226475497087L56.333333333333336,111.72375608483952L57.2,109.89487746357919L58.06666666666666,111.95100544889769L58.93333333333333,111.79719680547716L59.800000000000004,111.39823063214621L60.666666666666664,92.02348280946416L60.666666666666664,93.91075858473779L61.53333333333333,97.53334491451582L62.4,102.78695358832678L63.26666666666667,105.82927290598553L64.13333333333334,107.36297402779263L65,108.14868320027989L65.86666666666667,110.07387954990071L66.73333333333333,107.55213925242425L67.60000000000001,111.18535289168359L68.46666666666665,111.67284313837689L69.33333333333333,111.52455592155458L70.2,112.58532408873242L71.06666666666666,116.3079945643743L71.93333333333334,113.24254183967909L72.80000000000001,111.3268543680509L73.66666666666667,116.06469813982648L74.53333333333333,116.97983149687451L75.39999999999999,118.95552966992062L76.26666666666667,119.6389045715332L77.13333333333334,118.81903682152432L78,119.97381954391798L78.86666666666667,121.20253810286522L79.73333333333332,122.99923861026764L80.6,120.25481550892195L81.46666666666667,121.91063343485197L82.33333333333333,121.433474312226L83.2,124.38949315746626L84.06666666666666,123.40142745773L84.93333333333334,124.27140359083813L85.8,124.27245129148167L86.66666666666666,125.86586692929268L87.53333333333333,125.67960608998936L88.4,125.05080445607504L89.26666666666667,127.10857472320399L90.13333333333334,126.52102243403596L91,126.51795890430611L91.86666666666666,128.18398417532444L92.73333333333333,128.46303946276507L93.6,127.75119981666407L94.46666666666667,129.72633435328802L95.33333333333333,130.9494143376748L96.2,129.59457163016003L97.06666666666668,130.850636502107L97.93333333333332,129.53708734611672L98.8,129.63084992269677L99.66666666666667,131.91466933985552L100.53333333333333,133.37959134578705L101.4,133.60084627072018L102.26666666666667,133.9228351811568L103.13333333333334,134.46740743021172L104,136.74114991227788L104.86666666666666,134.55252979199093L105.73333333333333,135.52172803878784L106.6,136.00687311589718L107.46666666666667,135.19513499240082L108.33333333333334,134.52668208877247L109.2,135.1515205850204L110.06666666666666,137.15364114940166L110.93333333333334,137.6433682590723L111.8,137.4369402875503L112.66666666666667,137.81162146727246L113.53333333333333,137.32582876086235L114.4,137.3529496192932L115.26666666666668,136.2434014827013L116.13333333333333,137.33373514314493L117,138.53834774593514L117.86666666666666,136.8476550926765L118.73333333333333,138.44873839616776L119.60000000000001,139.3509921083848L120.46666666666667,137.90955495337647L121.33333333333333,138.77547290424508L122.19999999999999,138.96136682728928L123.06666666666666,140.43460854887962L123.93333333333334,141.3146616170804L124.8,139.22843102614087L125.66666666666667,139.47152409950894L126.53333333333335,141.4608733256658L127.39999999999999,141.12424091994762L128.26666666666668,142.16983068982762L129.13333333333333,142.9851827174425L130,141.66540261606377L130.86666666666665,143.479206725955L131.73333333333335,143.52907860279083L132.6,143.53089992205304L133.46666666666667,142.11268237729868L134.33333333333334,144.70488606890044L135.20000000000002,143.55228716135025L136.06666666666666,144.19664737085503L136.9333333333333,143.41509805619717L137.8,143.23203999797505L138.66666666666666,143.5286033799251L139.53333333333333,144.2405911187331L140.4,143.5612876613935L141.26666666666668,145.06938974310955L142.13333333333333,143.89854780336222L143,144.97080752253532L143.86666666666667,145.32688980549574L144.73333333333332,145.82056789596876L145.60000000000002,144.8760082970063L146.46666666666667,146.43285277237496L147.33333333333334,-21.92622955640155L148.2,12.430288235346495L149.06666666666666,20.21153881152472L149.93333333333334,27.144408265749632L150.79999999999998,42.06034108002984L151.66666666666669,39.451672573884366L152.53333333333333,48.83781486749652L153.4,50.13538990418118L154.26666666666668,48.44368491570157L155.13333333333333,50.87414705753328L156,50.61813676357271L156.86666666666667,55.404705246289595L157.73333333333335,53.09489224354428L158.6,63.24537857373558L159.46666666666664,56.91919410228731L160.33333333333334,60.77696049213411L161.2,61.14740445216499L162.06666666666666,65.65058980385464L162.93333333333334,66.30373611052833L163.8,62.76010308663052L164.66666666666666,68.66974476973218L165.53333333333336,66.87601053714754L166.4,66.50647723674776L167.26666666666665,69.73297967513405L168.13333333333333,71.54654506842297L169,70.17468496163688L169.86666666666667,68.27401453256608L170.73333333333332,76.55179564158124L171.6,72.29096953074139L172.46666666666667,75.25193069378537L173.33333333333331,75.55731111764909L174.20000000000002,72.51204762856167L175.06666666666666,72.28875919183098L175.93333333333334,84.87899108727775L176.8,83.31275377670926L177.66666666666666,84.14679421981178L178.53333333333333,80.75830930471422L179.39999999999998,82.94905577103299L180.26666666666668,84.82097411155702L181.13333333333333,84.02385516961418L182,83.03852144877118L182.86666666666667,83.25410022338234L183.73333333333332,81.15193529923759L184.6,84.68145751953126L185.46666666666667,90.99194858471554L186.33333333333334,94.22021929423016L187.2,97.59882841507596L188.0666666666667,97.87914801637334L188.93333333333334,98.72776785492898L189.79999999999998,99.74526642759642L190.66666666666666,102.40232809384665L191.53333333333333,103.00389835238458L192.4,103.4851156572501L193.26666666666665,108.52470605572066L194.13333333333335,109.04895423849425L195,112.23537881175679L195.86666666666665,110.12191021442415L196.73333333333335,110.36245697736742L197.6,110.88225795825323L198.46666666666667,111.40687305728596L199.33333333333334,111.4275618294875L200.20000000000002,112.27136312921843L201.06666666666666,109.732276091973L201.9333333333333,115.3032717506091L202.8,118.39341396093369L203.66666666666666,118.32210842768353L204.53333333333333,114.68111881613731L205.4,117.72446815172833L206.26666666666668,120.1982750395934L207.13333333333333,120.00153277317685L208,119.36320457855862L208.86666666666667,121.3184703787168L209.73333333333332,120.99424902598065L210.60000000000002,121.13809788227081L211.46666666666667,123.65686748425168L212.33333333333334,123.46536814173064L213.2,124.05777875582379L214.06666666666666,125.02901935577393L214.93333333333334,123.52941492199898L215.79999999999998,124.56084305047989L216.66666666666669,124.39558927218121L217.53333333333333,127.12974976996583L218.4,124.22084871927899L219.26666666666668,126.63557987908524L220.13333333333333,126.77232912679514L221,127.33043749133748L221.86666666666667,126.7359845240911L222.73333333333335,129.86646541953087L223.6,127.79197614888352L224.46666666666664,129.95743854840597L225.33333333333334,128.67120255033177L226.2,129.636568069458L227.06666666666666,129.1717448482911L227.93333333333334,132.02544489502907L228.8,134.0043878455957L229.66666666666666,131.11665963133177L230.53333333333336,131.69679623345536L231.4,131.52513247231644L232.26666666666665,131.27207961181801L233.13333333333333,132.3433137337367L234,21.06571986277899L234.86666666666667,58.08810973167421L235.73333333333332,65.60693118969601L236.6,71.13626195987068L237.46666666666667,66.7154780427615L238.33333333333331,74.64388414223991L239.20000000000002,69.0403478741646L240.06666666666666,75.44278903802238" style="fill: none;" fill="none"></path></g></g></g></g></g></g><g transform="translate(70, 178)" clip-path="url(#clip_1)"><clipPath id="clip_1"><rect width="260" height="22"></rect></clipPath><g><g><line x1="0" y1="0" x2="0" y2="5" style="visibility: inherit;" fill="rgb(0, 0, 0)" stroke="rgb(204, 204, 204)" stroke-width="1px"></line><line x1="17.333333333333332" y1="0" x2="17.333333333333332" y2="5" style="visibility: inherit;" fill="rgb(0, 0, 0)" stroke="rgb(204, 204, 204)" stroke-width="1px"></line><line x1="34.666666666666664" y1="0" x2="34.666666666666664" y2="5" style="visibility: inherit;" fill="rgb(0, 0, 0)" stroke="rgb(204, 204, 204)" stroke-width="1px"></line><line x1="52" y1="0" x2="52" y2="5" style="visibility: inherit;" fill="rgb(0, 0, 0)" stroke="rgb(204, 204, 204)" stroke-width="1px"></line><line x1="69.33333333333333" y1="0" x2="69.33333333333333" y2="5" style="visibility: inherit;" fill="rgb(0, 0, 0)" stroke="rgb(204, 204, 204)" stroke-width="1px"></line><line x1="86.66666666666666" y1="0" x2="86.66666666666666" y2="5" style="visibility: inherit;" fill="rgb(0, 0, 0)" stroke="rgb(204, 204, 204)" stroke-width="1px"></line><line x1="104" y1="0" x2="104" y2="5" style="visibility: inherit;" fill="rgb(0, 0, 0)" stroke="rgb(204, 204, 204)" stroke-width="1px"></line><line x1="121.33333333333333" y1="0" x2="121.33333333333333" y2="5" style="visibility: inherit;" fill="rgb(0, 0, 0)" stroke="rgb(204, 204, 204)" stroke-width="1px"></line><line x1="138.66666666666666" y1="0" x2="138.66666666666666" y2="5" style="visibility: inherit;" fill="rgb(0, 0, 0)" stroke="rgb(204, 204, 204)" stroke-width="1px"></line><line x1="156" y1="0" x2="156" y2="5" style="visibility: inherit;" fill="rgb(0, 0, 0)" stroke="rgb(204, 204, 204)" stroke-width="1px"></line><line x1="173.33333333333331" y1="0" x2="173.33333333333331" y2="5" style="visibility: inherit;" fill="rgb(0, 0, 0)" stroke="rgb(204, 204, 204)" stroke-width="1px"></line><line x1="190.66666666666666" y1="0" x2="190.66666666666666" y2="5" style="visibility: inherit;" fill="rgb(0, 0, 0)" stroke="rgb(204, 204, 204)" stroke-width="1px"></line><line x1="208" y1="0" x2="208" y2="5" style="visibility: inherit;" fill="rgb(0, 0, 0)" stroke="rgb(204, 204, 204)" stroke-width="1px"></line><line x1="225.33333333333334" y1="0" x2="225.33333333333334" y2="5" style="visibility: inherit;" fill="rgb(0, 0, 0)" stroke="rgb(204, 204, 204)" stroke-width="1px"></line><line x1="242.66666666666666" y1="0" x2="242.66666666666666" y2="5" style="visibility: inherit;" fill="rgb(0, 0, 0)" stroke="rgb(204, 204, 204)" stroke-width="1px"></line><line x1="260" y1="0" x2="260" y2="5" style="visibility: inherit;" fill="rgb(0, 0, 0)" stroke="rgb(204, 204, 204)" stroke-width="1px"></line></g><g transform="translate(0, 8)"><text x="0" y="0" dx="0em" dy="0.95em" style="text-anchor: middle; visibility: hidden; font-family: &quot;Helvetica Neue&quot;, sans-serif; font-size: 12px; font-weight: 200;" fill="rgb(50, 49, 63)" stroke="none" stroke-width="1px">-20</text><text x="17.333333333333332" y="0" dx="0em" dy="0.95em" style="text-anchor: middle; visibility: inherit; font-family: &quot;Helvetica Neue&quot;, sans-serif; font-size: 12px; font-weight: 200;" fill="rgb(50, 49, 63)" stroke="none" stroke-width="1px">0</text><text x="34.666666666666664" y="0" dx="0em" dy="0.95em" style="text-anchor: middle; visibility: hidden; font-family: &quot;Helvetica Neue&quot;, sans-serif; font-size: 12px; font-weight: 200;" fill="rgb(50, 49, 63)" stroke="none" stroke-width="1px">20</text><text x="52" y="0" dx="0em" dy="0.95em" style="text-anchor: middle; visibility: inherit; font-family: &quot;Helvetica Neue&quot;, sans-serif; font-size: 12px; font-weight: 200;" fill="rgb(50, 49, 63)" stroke="none" stroke-width="1px">40</text><text x="69.33333333333333" y="0" dx="0em" dy="0.95em" style="text-anchor: middle; visibility: hidden; font-family: &quot;Helvetica Neue&quot;, sans-serif; font-size: 12px; font-weight: 200;" fill="rgb(50, 49, 63)" stroke="none" stroke-width="1px">60</text><text x="86.66666666666666" y="0" dx="0em" dy="0.95em" style="text-anchor: middle; visibility: inherit; font-family: &quot;Helvetica Neue&quot;, sans-serif; font-size: 12px; font-weight: 200;" fill="rgb(50, 49, 63)" stroke="none" stroke-width="1px">80</text><text x="104" y="0" dx="0em" dy="0.95em" style="text-anchor: middle; visibility: hidden; font-family: &quot;Helvetica Neue&quot;, sans-serif; font-size: 12px; font-weight: 200;" fill="rgb(50, 49, 63)" stroke="none" stroke-width="1px">100</text><text x="121.33333333333333" y="0" dx="0em" dy="0.95em" style="text-anchor: middle; visibility: inherit; font-family: &quot;Helvetica Neue&quot;, sans-serif; font-size: 12px; font-weight: 200;" fill="rgb(50, 49, 63)" stroke="none" stroke-width="1px">120</text><text x="138.66666666666666" y="0" dx="0em" dy="0.95em" style="text-anchor: middle; visibility: hidden; font-family: &quot;Helvetica Neue&quot;, sans-serif; font-size: 12px; font-weight: 200;" fill="rgb(50, 49, 63)" stroke="none" stroke-width="1px">140</text><text x="156" y="0" dx="0em" dy="0.95em" style="text-anchor: middle; visibility: inherit; font-family: &quot;Helvetica Neue&quot;, sans-serif; font-size: 12px; font-weight: 200;" fill="rgb(50, 49, 63)" stroke="none" stroke-width="1px">160</text><text x="173.33333333333331" y="0" dx="0em" dy="0.95em" style="text-anchor: middle; visibility: hidden; font-family: &quot;Helvetica Neue&quot;, sans-serif; font-size: 12px; font-weight: 200;" fill="rgb(50, 49, 63)" stroke="none" stroke-width="1px">180</text><text x="190.66666666666666" y="0" dx="0em" dy="0.95em" style="text-anchor: middle; visibility: inherit; font-family: &quot;Helvetica Neue&quot;, sans-serif; font-size: 12px; font-weight: 200;" fill="rgb(50, 49, 63)" stroke="none" stroke-width="1px">200</text><text x="208" y="0" dx="0em" dy="0.95em" style="text-anchor: middle; visibility: hidden; font-family: &quot;Helvetica Neue&quot;, sans-serif; font-size: 12px; font-weight: 200;" fill="rgb(50, 49, 63)" stroke="none" stroke-width="1px">220</text><text x="225.33333333333334" y="0" dx="0em" dy="0.95em" style="text-anchor: middle; visibility: inherit; font-family: &quot;Helvetica Neue&quot;, sans-serif; font-size: 12px; font-weight: 200;" fill="rgb(50, 49, 63)" stroke="none" stroke-width="1px">240</text><text x="242.66666666666666" y="0" dx="0em" dy="0.95em" style="text-anchor: middle; visibility: hidden; font-family: &quot;Helvetica Neue&quot;, sans-serif; font-size: 12px; font-weight: 200;" fill="rgb(50, 49, 63)" stroke="none" stroke-width="1px">260</text><text x="260" y="0" dx="0em" dy="0.95em" style="text-anchor: middle; visibility: hidden; font-family: &quot;Helvetica Neue&quot;, sans-serif; font-size: 12px; font-weight: 200;" fill="rgb(50, 49, 63)" stroke="none" stroke-width="1px">280</text></g><line x1="0" y1="0" x2="260" y2="0" fill="rgb(0, 0, 0)" stroke="rgb(204, 204, 204)" stroke-width="1px"></line></g></g></g></g></svg>