<svg viewBox="0 0 330 200" xmlns="http://www.w3.org/2000/svg"><g><g><g><g><g><line x1="58" y1="178" x2="53" y2="178" style="visibility: inherit;" fill="rgb(0, 0, 0)" stroke="rgb(204, 204, 204)" stroke-width="1px"></line><line x1="58" y1="164.30769230769232" x2="53" y2="164.30769230769232" style="visibility: inherit;" fill="rgb(0, 0, 0)" stroke="rgb(204, 204, 204)" stroke-width="1px"></line><line x1="58" y1="150.6153846153846" x2="53" y2="150.6153846153846" style="visibility: inherit;" fill="rgb(0, 0, 0)" stroke="rgb(204, 204, 204)" stroke-width="1px"></line><line x1="58" y1="136.9230769230769" x2="53" y2="136.9230769230769" style="visibility: inherit;" fill="rgb(0, 0, 0)" stroke="rgb(204, 204, 204)" stroke-width="1px"></line><line x1="58" y1="123.23076923076923" x2="53" y2="123.23076923076923" style="visibility: inherit;" fill="rgb(0, 0, 0)" stroke="rgb(204, 204, 204)" stroke-width="1px"></line><line x1="58" y1="109.53846153846155" x2="53" y2="109.53846153846155" style="visibility: inherit;" fill="rgb(0, 0, 0)" stroke="rgb(204, 204, 204)" stroke-width="1px"></line><line x1="58" y1="95.84615384615385" x2="53" y2="95.84615384615385" style="visibility: inherit;" fill="rgb(0, 0, 0)" stroke="rgb(204, 204, 204)" stroke-width="1px"></line><line x1="58" y1="82.15384615384616" x2="53" y2="82.15384615384616" style="visibility: inherit;" fill="rgb(0, 0, 0)" stroke="rgb(204, 204, 204)" stroke-width="1px"></line><line x1="58" y1="68.46153846153848" x2="53" y2="68.46153846153848" style="visibility: inherit;" fill="rgb(0, 0, 0)" stroke="rgb(204, 204, 204)" stroke-width="1px"></line><line x1="58" y1="54.769230769230774" x2="53" y2="54.769230769230774" style="visibility: inherit;" fill="rgb(0, 0, 0)" stroke="rgb(204, 204, 204)" stroke-width="1px"></line><line x1="58" y1="41.076923076923094" x2="53" y2="41.076923076923094" style="visibility: inherit;" fill="rgb(0, 0, 0)" stroke="rgb(204, 204, 204)" stroke-width="1px"></line><line x1="58" y1="27.384615384615387" x2="53" y2="27.384615384615387" style="visibility: inherit;" fill="rgb(0, 0, 0)" stroke="rgb(204, 204, 204)" stroke-width="1px"></line><line x1="58" y1="13.69230769230768" x2="53" y2="13.69230769230768" style="visibility: inherit;" fill="rgb(0, 0, 0)" stroke="rgb(204, 204, 204)" stroke-width="1px"></line><line x1="58" y1="0" x2="53" y2="0" style="visibility: inherit;" fill="rgb(0, 0, 0)" stroke="rgb(204, 204, 204)" stroke-width="1px"></line></g><g transform="translate(48, 0)"><text x="0" y="178" dx="0em" dy="0.3em" style="text-anchor: end; visibility: hidden; font-family: &quot;Helvetica Neue&quot;, sans-serif; font-size: 12px; font-weight: 200;" fill="rgb(50, 49, 63)" stroke="none" stroke-width="1px">-0.2</text><text x="0" y="164.30769230769232" dx="0em" dy="0.3em" style="text-anchor: end; visibility: inherit; font-family: &quot;Helvetica Neue&quot;, sans-serif; font-size: 12px; font-weight: 200;" fill="rgb(50, 49, 63)" stroke="none" stroke-width="1px">0</text><text x="0" y="150.6153846153846" dx="0em" dy="0.3em" style="text-anchor: end; visibility: hidden; font-family: &quot;Helvetica Neue&quot;, sans-serif; font-size: 12px; font-weight: 200;" fill="rgb(50, 49, 63)" stroke="none" stroke-width="1px">0.2</text><text x="0" y="136.9230769230769" dx="0em" dy="0.3em" style="text-anchor: end; visibility: inherit; font-family: &quot;Helvetica Neue&quot;, sans-serif; font-size: 12px; font-weight: 200;" fill="rgb(50, 49, 63)" stroke="none" stroke-width="1px">0.4</text><text x="0" y="123.23076923076923" dx="0em" dy="0.3em" style="text-anchor: end; visibility: hidden; font-family: &quot;Helvetica Neue&quot;, sans-serif; font-size: 12px; font-weight: 200;" fill="rgb(50, 49, 63)" stroke="none" stroke-width="1px">0.6</text><text x="0" y="109.53846153846155" dx="0em" dy="0.3em" style="text-anchor: end; visibility: inherit; font-family: &quot;Helvetica Neue&quot;, sans-serif; font-size: 12px; font-weight: 200;" fill="rgb(50, 49, 63)" stroke="none" stroke-width="1px">0.8</text><text x="0" y="95.84615384615385" dx="0em" dy="0.3em" style="text-anchor: end; visibility: hidden; font-family: &quot;Helvetica Neue&quot;, sans-serif; font-size: 12px; font-weight: 200;" fill="rgb(50, 49, 63)" stroke="none" stroke-width="1px">1</text><text x="0" y="82.15384615384616" dx="0em" dy="0.3em" style="text-anchor: end; visibility: inherit; font-family: &quot;Helvetica Neue&quot;, sans-serif; font-size: 12px; font-weight: 200;" fill="rgb(50, 49, 63)" stroke="none" stroke-width="1px">1.2</text><text x="0" y="68.46153846153848" dx="0em" dy="0.3em" style="text-anchor: end; visibility: hidden; font-family: &quot;Helvetica Neue&quot;, sans-serif; font-size: 12px; font-weight: 200;" fill="rgb(50, 49, 63)" stroke="none" stroke-width="1px">1.4</text><text x="0" y="54.769230769230774" dx="0em" dy="0.3em" style="text-anchor: end; visibility: inherit; font-family: &quot;Helvetica Neue&quot;, sans-serif; font-size: 12px; font-weight: 200;" fill="rgb(50, 49, 63)" stroke="none" stroke-width="1px">1.6</text><text x="0" y="41.076923076923094" dx="0em" dy="0.3em" style="text-anchor: end; visibility: hidden; font-family: &quot;Helvetica Neue&quot;, sans-serif; font-size: 12px; font-weight: 200;" fill="rgb(50, 49, 63)" stroke="none" stroke-width="1px">1.8</text><text x="0" y="27.384615384615387" dx="0em" dy="0.3em" style="text-anchor: end; visibility: inherit; font-family: &quot;Helvetica Neue&quot;, sans-serif; font-size: 12px; font-weight: 200;" fill="rgb(50, 49, 63)" stroke="none" stroke-width="1px">2</text><text x="0" y="13.69230769230768" dx="0em" dy="0.3em" style="text-anchor: end; visibility: hidden; font-family: &quot;Helvetica Neue&quot;, sans-serif; font-size: 12px; font-weight: 200;" fill="rgb(50, 49, 63)" stroke="none" stroke-width="1px">2.2</text><text x="0" y="0" dx="0em" dy="0.3em" style="text-anchor: end; visibility: hidden; font-family: &quot;Helvetica Neue&quot;, sans-serif; font-size: 12px; font-weight: 200;" fill="rgb(50, 49, 63)" stroke="none" stroke-width="1px">2.4</text></g><line x1="58" y1="0" x2="58" y2="178" fill="rgb(0, 0, 0)" stroke="rgb(204, 204, 204)" stroke-width="1px"></line></g></g><g transform="translate(58, 0)" clip-path="url(#clip_0)"><clipPath id="clip_0"><rect width="272" height="178"></rect></clipPath><g><g><g><line x1="0" y1="0" x2="0" y2="178" fill="rgb(0, 0, 0)" stroke="rgb(60, 60, 60)" stroke-width="1px" opacity="0.25"></line><line x1="30.22222222222222" y1="0" x2="30.22222222222222" y2="178" fill="rgb(0, 0, 0)" stroke="rgb(60, 60, 60)" stroke-width="1px" opacity="0.25"></line><line x1="60.44444444444444" y1="0" x2="60.44444444444444" y2="178" fill="rgb(0, 0, 0)" stroke="rgb(60, 60, 60)" stroke-width="1px" opacity="0.25"></line><line x1="90.66666666666666" y1="0" x2="90.66666666666666" y2="178" fill="rgb(0, 0, 0)" stroke="rgb(60, 60, 60)" stroke-width="1px" opacity="0.25"></line><line x1="120.88888888888889" y1="0" x2="120.88888888888889" y2="178" fill="rgb(0, 0, 0)" stroke="rgb(60, 60, 60)" stroke-width="1px" opacity="0.25"></line><line x1="151.11111111111111" y1="0" x2="151.11111111111111" y2="178" fill="rgb(0, 0, 0)" stroke="rgb(60, 60, 60)" stroke-width="1px" opacity="0.25"></line><line x1="181.33333333333331" y1="0" x2="181.33333333333331" y2="178" fill="rgb(0, 0, 0)" stroke="rgb(60, 60, 60)" stroke-width="1px" opacity="0.25"></line><line x1="211.55555555555557" y1="0" x2="211.55555555555557" y2="178" fill="rgb(0, 0, 0)" stroke="rgb(60, 60, 60)" stroke-width="1px" opacity="0.25"></line><line x1="241.77777777777777" y1="0" x2="241.77777777777777" y2="178" fill="rgb(0, 0, 0)" stroke="rgb(60, 60, 60)" stroke-width="1px" opacity="0.25"></line><line x1="272" y1="0" x2="272" y2="178" fill="rgb(0, 0, 0)" stroke="rgb(60, 60, 60)" stroke-width="1px" opacity="0.25"></line></g><g><line x1="0" y1="178" x2="272" y2="178" fill="rgb(0, 0, 0)" stroke="rgb(60, 60, 60)" stroke-width="1px" opacity="0.25"></line><line x1="0" y1="164.30769230769232" x2="272" y2="164.30769230769232" fill="rgb(0, 0, 0)" stroke="rgb(60, 60, 60)" stroke-width="1px" opacity="0.25"></line><line x1="0" y1="150.6153846153846" x2="272" y2="150.6153846153846" fill="rgb(0, 0, 0)" stroke="rgb(60, 60, 60)" stroke-width="1px" opacity="0.25"></line><line x1="0" y1="136.9230769230769" x2="272" y2="136.9230769230769" fill="rgb(0, 0, 0)" stroke="rgb(60, 60, 60)" stroke-width="1px" opacity="0.25"></line><line x1="0" y1="123.23076923076923" x2="272" y2="123.23076923076923" fill="rgb(0, 0, 0)" stroke="rgb(60, 60, 60)" stroke-width="1px" opacity="0.25"></line><line x1="0" y1="109.53846153846155" x2="272" y2="109.53846153846155" fill="rgb(0, 0, 0)" stroke="rgb(60, 60, 60)" stroke-width="1px" opacity="0.25"></line><line x1="0" y1="95.84615384615385" x2="272" y2="95.84615384615385" fill="rgb(0, 0, 0)" stroke="rgb(60, 60, 60)" stroke-width="1px" opacity="0.25"></line><line x1="0" y1="82.15384615384616" x2="272" y2="82.15384615384616" fill="rgb(0, 0, 0)" stroke="rgb(60, 60, 60)" stroke-width="1px" opacity="0.25"></line><line x1="0" y1="68.46153846153848" x2="272" y2="68.46153846153848" fill="rgb(0, 0, 0)" stroke="rgb(60, 60, 60)" stroke-width="1px" opacity="0.25"></line><line x1="0" y1="54.769230769230774" x2="272" y2="54.769230769230774" fill="rgb(0, 0, 0)" stroke="rgb(60, 60, 60)" stroke-width="1px" opacity="0.25"></line><line x1="0" y1="41.076923076923094" x2="272" y2="41.076923076923094" fill="rgb(0, 0, 0)" stroke="rgb(60, 60, 60)" stroke-width="1px" opacity="0.25"></line><line x1="0" y1="27.384615384615387" x2="272" y2="27.384615384615387" fill="rgb(0, 0, 0)" stroke="rgb(60, 60, 60)" stroke-width="1px" opacity="0.25"></line><line x1="0" y1="13.69230769230768" x2="272" y2="13.69230769230768" fill="rgb(0, 0, 0)" stroke="rgb(60, 60, 60)" stroke-width="1px" opacity="0.25"></line><line x1="0" y1="0" x2="272" y2="0" fill="rgb(0, 0, 0)" stroke="rgb(60, 60, 60)" stroke-width="1px" opacity="0.25"></line></g></g></g><g><g><line x1="0" y1="164.30769230769232" x2="272" y2="164.30769230769232" fill="rgb(0, 0, 0)" stroke="rgb(153, 153, 153)" stroke-width="1.5px"></line></g></g><g><g><line x1="30.22222222222222" y1="0" x2="30.22222222222222" y2="178" fill="rgb(0, 0, 0)" stroke="rgb(153, 153, 153)" stroke-width="1.5px"></line></g></g><g><g><g><g><g><path stroke="rgb(255, 112, 67)" stroke-width="2px" d="M30.22222222222222,28.472191902307344L31.733333333333334,43.499233692884445L33.24444444444444,52.37023546182941L34.75555555555555,59.9302368023142L36.266666666666666,65.25983746730275L37.77777777777778,70.20986076448266L39.288888888888884,73.64124761577331L40.8,77.45405530911364L42.31111111111111,79.80868379249324L43.82222222222222,82.5298707549503L30.22222222222222,80.27526822843703L31.733333333333334,81.05965005602L33.24444444444444,81.02040748977859L34.75555555555555,81.72299576251726L36.266666666666666,84.29557668490402L37.77777777777778,85.08503767639633L39.288888888888884,87.22207060843284L40.8,88.35386023631841L42.31111111111111,88.74609250626057L43.82222222222222,89.87891934584079L45.33333333333333,91.02427689548654L46.84444444444444,90.52891730882939L48.355555555555554,88.83376373748348L49.86666666666666,91.07853885959459L51.37777777777778,92.69901854547966L52.88888888888889,93.68632013660167L54.400000000000006,93.77605455660408L55.91111111111111,95.27158924943221L57.422222222222224,95.99870978199755L58.93333333333334,96.42216549810125L60.44444444444444,98.14532796555648L61.955555555555556,99.27006493138077L63.46666666666667,99.11480328645983L64.97777777777777,99.9957047401638L66.48888888888888,101.38625330236184L68,101.31389840151643L69.5111111111111,98.05546329947329L71.02222222222223,98.9371781514502L72.53333333333333,100.17507703288211L74.04444444444444,101.91602227984266L75.55555555555556,103.3600810487478L77.06666666666666,104.19076676386825L78.57777777777777,101.95708340884647L80.08888888888889,102.15991792694186L81.6,103.52858929144017L83.11111111111111,104.90023097266294L84.62222222222222,106.01757273096082L86.13333333333333,106.93399217921127L87.64444444444445,107.56092197050847L89.15555555555555,107.19578195835358L90.66666666666666,107.27595308373915L92.17777777777778,105.03014835501766L93.68888888888888,106.36876512041954L95.19999999999999,106.58197137673405L96.71111111111111,107.20805138463105L98.22222222222221,109.04252307024724L99.73333333333332,109.86821598148944L101.24444444444444,108.04991370273336L102.75555555555556,109.1152704219751L104.26666666666668,110.33671139015387L105.77777777777779,108.73179367979542L107.28888888888889,107.61723964828812L108.80000000000001,107.55654330732332L110.31111111111112,108.33497585143712L111.82222222222222,109.98337977699083L113.33333333333334,111.4898356751439L114.84444444444445,111.9962840209827L116.35555555555555,112.80118693982422L117.86666666666667,113.11854995900538L119.37777777777778,114.64596192331678L120.88888888888889,115.77471099807224L122.4,114.86225150946206L123.91111111111111,114.87044277649866L125.42222222222223,114.21192778128969L126.93333333333334,116.43643030419793L128.44444444444443,117.91503263420003L129.95555555555555,119.56332375993169L131.46666666666667,120.54964439642791L132.97777777777776,121.01639171721419L134.48888888888888,120.91192764853719L136,121.36384058943099L137.51111111111112,122.51444806518884L139.0222222222222,123.40987868135504L140.53333333333336,123.77325995854657L142.04444444444445,123.2595639857868L143.55555555555557,124.21777837566162L145.06666666666666,123.62767531972258L146.57777777777778,121.92092524698822L148.08888888888887,123.26809577369178L149.60000000000002,125.68274944695386L151.11111111111111,127.13301720515727L152.62222222222223,127.55858553090732L154.13333333333333,128.49056934774268L155.64444444444445,129.12394867722097L157.15555555555554,129.62341863695966L158.66666666666669,130.064837065199L160.17777777777778,130.82094077372398L161.6888888888889,130.57048695699527L163.2,128.34083310017678L164.7111111111111,128.4795123569076L166.22222222222223,130.66459062197924L167.73333333333335,131.30869930363093L169.24444444444444,132.3897147517448L170.75555555555556,129.59078945945586L172.26666666666665,131.20758171310862L173.77777777777777,132.16432076445034L175.2888888888889,132.70819204897174L176.8,132.85272376173108L178.3111111111111,133.53492033373107L179.82222222222222,133.39649181117474L181.33333333333331,133.85369974427414L182.84444444444446,132.67432364073574L184.35555555555555,133.82252818034857L185.86666666666667,134.63583735224285L187.37777777777777,135.64115723406204L188.88888888888889,135.73355847581263L190.39999999999998,135.0546930779826L191.91111111111113,135.494770442282L193.42222222222222,135.8900408053789L194.93333333333334,136.43628838317724L196.44444444444443,136.58842638755885L197.95555555555555,137.15093331480284L199.46666666666664,137.89536236078712L200.9777777777778,136.4460958070779L202.48888888888888,137.09802409205946L204,135.95753372014644L205.51111111111112,135.646127071708L207.0222222222222,137.53844103113892L208.53333333333336,138.29592511087614L210.04444444444445,139.24110263558052L211.55555555555557,139.71056467461295L213.06666666666666,139.68364050029803L214.57777777777778,140.01523446784944L216.08888888888887,139.30632916629537L217.60000000000002,140.04825957097592L219.11111111111111,140.46762254660578L220.62222222222223,140.35578471547285L222.13333333333333,140.6170385395733L223.64444444444445,141.24927431573417L225.15555555555554,141.48235473127974L226.66666666666669,141.35446823294052L228.17777777777778,140.06921986456842L229.6888888888889,140.85836173035074L231.2,140.58624635118053L232.7111111111111,138.89625264759775L234.22222222222223,140.165236729946L235.73333333333335,141.11306606995882L237.24444444444444,141.7074846737576L238.75555555555556,140.4933454993546L240.26666666666665,141.5047836562365L241.77777777777777,142.2277330058575L243.2888888888889,142.6817302771297L244.8,141.05272192992857L246.3111111111111,141.5581681426191L247.82222222222222,141.9626239613648L249.33333333333331,142.04134362563457L250.84444444444446,143.2132750259567L252.35555555555555,143.47192804624243L253.86666666666667,144.23612467689003L255.37777777777777,144.62275019203466" style="fill: none;" fill="none"></path></g></g></g></g><g opacity="0.2"><g><g><g><path stroke="rgb(255, 112, 67)" stroke-width="2px" d="M30.22222222222222,28.472191902307344L31.733333333333334,52.51545876723071L33.24444444444444,60.88639716001657L34.75555555555555,68.82079837872433L36.266666666666666,72.21816409551181L37.77777777777778,77.05752499286945L39.288888888888884,78.54818571530856L40.8,83.01316552895767L42.31111111111111,83.2813034424415L43.82222222222222,86.5705162561857L30.22222222222222,76.91381351764386L31.733333333333334,82.23195422612704L33.24444444444444,80.96167177420398L34.75555555555555,82.77550172805786L36.266666666666666,88.15142409618085L37.77777777777778,86.26867237457864L39.288888888888884,90.42671568577107L40.8,90.0512573168828L42.31111111111111,89.33438115853531L43.82222222222222,91.57805606035086L45.33333333333333,92.7422504058251L46.84444444444444,89.78589422886189L48.355555555555554,86.29106684831473L49.86666666666666,94.44567495125992L51.37777777777778,95.12972655663124L52.88888888888889,95.1672683128944L54.400000000000006,93.91065595700192L55.91111111111111,97.51488899267638L57.422222222222224,97.08938991106474L58.93333333333334,97.05734883821928L60.44444444444444,100.7300710953199L61.955555555555556,100.95717015633217L63.46666666666667,98.88191083761363L64.97777777777777,101.31705685762259L66.48888888888888,103.4720760858976L68,101.20536605211406L69.5111111111111,93.16781069682196L71.02222222222223,100.25975042123062L72.53333333333333,102.03192534813515L74.04444444444444,104.52744014446553L75.55555555555556,105.52616919920996L77.06666666666666,105.43679533554958L78.57777777777777,98.60655837792618L80.08888888888889,102.4641697039971L81.6,105.58159633783194L83.11111111111111,106.95769349428325L84.62222222222222,107.69358536830316L86.13333333333333,108.3086213515355L87.64444444444445,108.50131665743315L89.15555555555555,106.64807194012863L90.66666666666666,107.39620977181656L92.17777777777778,101.66144126195175L93.68888888888888,108.37669026851655L95.19999999999999,106.90178076120525L96.71111111111111,108.14717139647558L98.22222222222221,111.7942305986698L99.73333333333332,111.1067553483523L101.24444444444444,105.3224602845999L102.75555555555556,110.71330550083748L104.26666666666668,112.1688728424219L105.77777777777779,106.32441711425783L107.28888888888889,105.94540860102728L108.80000000000001,107.46549879587614L110.31111111111112,109.50262466760783L111.82222222222222,112.45598566532136L113.33333333333334,113.7495195223735L114.84444444444445,112.75595653974094L116.35555555555555,114.00854131808649L117.86666666666667,113.59459448777713L119.37777777777778,116.93707986978384L120.88888888888889,117.46783461020544L122.4,113.49356227654678L123.91111111111111,114.8827296770536L125.42222222222223,113.22415528847621L126.93333333333334,119.77318408856026L128.44444444444443,120.13293612920322L129.95555555555555,122.03576044852917L131.46666666666667,122.02912535117224L132.97777777777776,121.71651269839361L134.48888888888888,120.75523154552167L136,122.04171000077174L137.51111111111112,124.24035927882562L139.0222222222222,124.75302460560432L140.53333333333336,124.3183318743339L142.04444444444445,122.48902002664713L143.55555555555557,125.65509996047388L145.06666666666666,122.74252073581403L146.57777777777778,119.36080013788664L148.08888888888887,125.28885156374712L149.60000000000002,129.30472995684698L151.11111111111111,129.3084188424624L152.62222222222223,128.1969380195324L154.13333333333333,129.8885450729957L155.64444444444445,130.07401767143836L157.15555555555554,130.37262357656772L158.66666666666669,130.72696470755798L160.17777777777778,131.95509633651147L161.6888888888889,130.1948062319022L163.2,124.99635231494904L164.7111111111111,128.68753124200381L166.22222222222223,133.9422080195867L167.73333333333335,132.2748623261085L169.24444444444444,134.0112379239156L170.75555555555556,125.3924015210225L172.26666666666665,133.63277009358774L173.77777777777777,133.59942934146295L175.2888888888889,133.52399897575378L176.8,133.06952133087012L178.3111111111111,134.5582151917311L179.82222222222222,133.18884902734024L181.33333333333331,134.53951164392325L182.84444444444446,130.90525948542816L184.35555555555555,135.54483498976782L185.86666666666667,135.85580111008426L187.37777777777777,137.14913705679086L188.88888888888889,135.87216033843848L190.39999999999998,134.03639498123755L191.91111111111113,136.1548864887311L193.42222222222222,136.4829463500243L194.93333333333334,137.25565974987472L196.44444444444443,136.81663339413132L197.95555555555555,137.99469370566882L199.46666666666664,139.01200592976352L200.9777777777778,134.2721959765141L202.48888888888888,138.07591651953186L204,134.24679816227695L205.51111111111112,135.17901709905038L207.0222222222222,140.37691197028528L208.53333333333336,139.43215123048196L210.04444444444445,140.65886892263705L211.55555555555557,140.41475773316165L213.06666666666666,139.6432542388256L214.57777777777778,140.51262541917654L216.08888888888887,138.24297121396432L217.60000000000002,141.1611551779967L219.11111111111111,141.09666701005057L220.62222222222223,140.1880279687735L222.13333333333333,141.00891927572397L223.64444444444445,142.1976279799755L225.15555555555554,141.83197535459811L226.66666666666669,141.16263848543167L228.17777777777778,138.14134731201025L229.6888888888889,142.04207452902426L231.2,140.17807328242523L232.7111111111111,136.36126209222354L234.22222222222223,142.06871285346838L235.73333333333335,142.53481007997806L237.24444444444444,142.59911257945575L238.75555555555556,138.67213673775012L240.26666666666665,143.02194089155932L241.77777777777777,143.312157030289L243.2888888888889,143.36272618403802L244.8,138.6092094091269L246.3111111111111,142.31633746165497L247.82222222222222,142.56930768948337L249.33333333333331,142.15942312203921L250.84444444444446,144.9711721264399L252.35555555555555,143.85990757667102L253.86666666666667,145.38241962286142L255.37777777777777,145.20268846475162" style="fill: none;" fill="none"></path></g></g></g></g></g></g><g transform="translate(58, 178)" clip-path="url(#clip_1)"><clipPath id="clip_1"><rect width="272" height="22"></rect></clipPath><g><g><line x1="0" y1="0" x2="0" y2="5" style="visibility: inherit;" fill="rgb(0, 0, 0)" stroke="rgb(204, 204, 204)" stroke-width="1px"></line><line x1="30.22222222222222" y1="0" x2="30.22222222222222" y2="5" style="visibility: inherit;" fill="rgb(0, 0, 0)" stroke="rgb(204, 204, 204)" stroke-width="1px"></line><line x1="60.44444444444444" y1="0" x2="60.44444444444444" y2="5" style="visibility: inherit;" fill="rgb(0, 0, 0)" stroke="rgb(204, 204, 204)" stroke-width="1px"></line><line x1="90.66666666666666" y1="0" x2="90.66666666666666" y2="5" style="visibility: inherit;" fill="rgb(0, 0, 0)" stroke="rgb(204, 204, 204)" stroke-width="1px"></line><line x1="120.88888888888889" y1="0" x2="120.88888888888889" y2="5" style="visibility: inherit;" fill="rgb(0, 0, 0)" stroke="rgb(204, 204, 204)" stroke-width="1px"></line><line x1="151.11111111111111" y1="0" x2="151.11111111111111" y2="5" style="visibility: inherit;" fill="rgb(0, 0, 0)" stroke="rgb(204, 204, 204)" stroke-width="1px"></line><line x1="181.33333333333331" y1="0" x2="181.33333333333331" y2="5" style="visibility: inherit;" fill="rgb(0, 0, 0)" stroke="rgb(204, 204, 204)" stroke-width="1px"></line><line x1="211.55555555555557" y1="0" x2="211.55555555555557" y2="5" style="visibility: inherit;" fill="rgb(0, 0, 0)" stroke="rgb(204, 204, 204)" stroke-width="1px"></line><line x1="241.77777777777777" y1="0" x2="241.77777777777777" y2="5" style="visibility: inherit;" fill="rgb(0, 0, 0)" stroke="rgb(204, 204, 204)" stroke-width="1px"></line><line x1="272" y1="0" x2="272" y2="5" style="visibility: inherit;" fill="rgb(0, 0, 0)" stroke="rgb(204, 204, 204)" stroke-width="1px"></line></g><g transform="translate(0, 8)"><text x="0" y="0" dx="0em" dy="0.95em" style="text-anchor: middle; visibility: hidden; font-family: &quot;Helvetica Neue&quot;, sans-serif; font-size: 12px; font-weight: 200;" fill="rgb(50, 49, 63)" stroke="none" stroke-width="1px">-20</text><text x="30.22222222222222" y="0" dx="0em" dy="0.95em" style="text-anchor: middle; visibility: inherit; font-family: &quot;Helvetica Neue&quot;, sans-serif; font-size: 12px; font-weight: 200;" fill="rgb(50, 49, 63)" stroke="none" stroke-width="1px">0</text><text x="60.44444444444444" y="0" dx="0em" dy="0.95em" style="text-anchor: middle; visibility: inherit; font-family: &quot;Helvetica Neue&quot;, sans-serif; font-size: 12px; font-weight: 200;" fill="rgb(50, 49, 63)" stroke="none" stroke-width="1px">20</text><text x="90.66666666666666" y="0" dx="0em" dy="0.95em" style="text-anchor: middle; visibility: inherit; font-family: &quot;Helvetica Neue&quot;, sans-serif; font-size: 12px; font-weight: 200;" fill="rgb(50, 49, 63)" stroke="none" stroke-width="1px">40</text><text x="120.88888888888889" y="0" dx="0em" dy="0.95em" style="text-anchor: middle; visibility: inherit; font-family: &quot;Helvetica Neue&quot;, sans-serif; font-size: 12px; font-weight: 200;" fill="rgb(50, 49, 63)" stroke="none" stroke-width="1px">60</text><text x="151.11111111111111" y="0" dx="0em" dy="0.95em" style="text-anchor: middle; visibility: inherit; font-family: &quot;Helvetica Neue&quot;, sans-serif; font-size: 12px; font-weight: 200;" fill="rgb(50, 49, 63)" stroke="none" stroke-width="1px">80</text><text x="181.33333333333331" y="0" dx="0em" dy="0.95em" style="text-anchor: middle; visibility: inherit; font-family: &quot;Helvetica Neue&quot;, sans-serif; font-size: 12px; font-weight: 200;" fill="rgb(50, 49, 63)" stroke="none" stroke-width="1px">100</text><text x="211.55555555555557" y="0" dx="0em" dy="0.95em" style="text-anchor: middle; visibility: inherit; font-family: &quot;Helvetica Neue&quot;, sans-serif; font-size: 12px; font-weight: 200;" fill="rgb(50, 49, 63)" stroke="none" stroke-width="1px">120</text><text x="241.77777777777777" y="0" dx="0em" dy="0.95em" style="text-anchor: middle; visibility: inherit; font-family: &quot;Helvetica Neue&quot;, sans-serif; font-size: 12px; font-weight: 200;" fill="rgb(50, 49, 63)" stroke="none" stroke-width="1px">140</text><text x="272" y="0" dx="0em" dy="0.95em" style="text-anchor: middle; visibility: hidden; font-family: &quot;Helvetica Neue&quot;, sans-serif; font-size: 12px; font-weight: 200;" fill="rgb(50, 49, 63)" stroke="none" stroke-width="1px">160</text></g><line x1="0" y1="0" x2="272" y2="0" fill="rgb(0, 0, 0)" stroke="rgb(204, 204, 204)" stroke-width="1px"></line></g></g></g></g></svg>